<svg xmlns="http://www.w3.org/2000/svg" width="1929" height="980.511" viewBox="0 0 1929 980.511"><path d="M1144.025,344.742c.852-1.411,2.636-1.546,4.051-2.112.989,1.283,2.01,2.574,3.03,3.849-.313,1.339-.554,2.694-.772,4.048.137.486.418,1.442.563,1.921,1.752.55,3.528,1.052,5.3,1.586-.185,1.275-.346,2.566-.49,3.849-1.342.8-2.725,1.506-4.067,2.263.04,1.2.1,2.407.161,3.61q2.073.777,4.179,1.546c-.016.51-.056,1.522-.08,2.032.4.3,1.189.9,1.583,1.2-.29,1.522-.531,3.052-.8,4.574-1.431.462-3.07.566-4.276,1.466-2.242,3.746-1.937,9.786,2.628,11.659-.04.383-.121,1.148-.153,1.538-.948,1.1-2.572,2.016-2.291,3.714.177,2.845.739,5.65,1.053,8.5,1.173.454,2.708.414,3.6,1.419.571,1.379.37,2.941.531,4.407-.675.032-2.025.1-2.709.135,0,1.586.008,3.164.048,4.758,1.053-.056,2.122-.112,3.207-.159.329,1.61.7,3.2.908,4.845-.659.032-1.977.088-2.636.112-.016,1.554-.024,3.116-.008,4.678,1.045-.024,2.1-.04,3.167-.048.338,1.6.731,3.188,1.15,4.782-.715.064-2.146.183-2.861.239,0,1.53.024,3.06.064,4.6.515.024,1.551.064,2.066.088a8.092,8.092,0,0,0,2.017,1.992c-.008.893.008,1.793.056,2.694-.643.04-1.945.128-2.6.175a13.6,13.6,0,0,0-.249,4.7l2.307-.032c.522.8,1.061,1.6,1.616,2.4-.089.94-.161,1.881-.225,2.829-.611.1-1.824.3-2.435.406-.04,1.259-.056,2.526-.064,3.793l2,.191a8.811,8.811,0,0,0,1.969,2.08,25.449,25.449,0,0,0,.161,2.582c-.844.375-1.688.757-2.508,1.132-.016,1.211-.024,2.431,0,3.658.45.024,1.366.08,1.816.112.7.948,1.447,1.873,2.082,2.9,0,.709.024,1.419.056,2.136-1.085.43-2.146.909-3.2,1.363.1.9.217,1.809.346,2.725.4.143,1.214.438,1.615.582q1.326,1.434,2.8,2.773c.056.422.153,1.267.209,1.689q-1.7.908-3.36,1.841c.008.98.032,1.968.064,2.957.6.04,1.8.112,2.4.143,0,.51-.008,1.53-.008,2.032.812.375,1.64.749,2.476,1.132-.273.749-.538,1.5-.78,2.255-.86.375-1.7.757-2.524,1.14.016.8.048,1.61.089,2.423,1.35,1.044,2.58,2.287,3.906,3.419.024.8.048,1.594.072,2.4-1.527.948-3.36,1.881-2.644,3.993.458.311,1.382.932,1.84,1.243,0,.5-.008,1.522-.008,2.032.6.032,1.8.1,2.4.135-.016.932-.016,1.865-.008,2.805a11.475,11.475,0,0,0-3.336,1.554c.948,1.745,1.857,3.514,2.926,5.2.506.016,1.511.04,2.017.056-.016.916-.008,1.841.008,2.773-1.712.47-3.127,1-3.432,2.885a5.415,5.415,0,0,1,2.17,3.873c.571.024,1.72.064,2.291.088-.032.932-.056,1.873-.056,2.821-.9.4-1.776.8-2.644,1.219.016.494.048,1.474.064,1.968.426.351,1.27,1.052,1.7,1.411-.12.51-.346,1.546-.458,2.056.683.04,2.041.112,2.717.151q0,1.387.072,2.8c-.772.773-2.05,1-2.532,2.024a17.7,17.7,0,0,0,.973,2.534c0,.558.016,1.674.024,2.231,1.045.151,2.049.47,3.127.614-.016,1.02-.016,2.056,0,3.092-.555.048-1.672.135-2.234.175-.3.685-.587,1.379-.86,2.072.37.359,1.125,1.068,1.5,1.427-.024.932-.032,1.873-.016,2.821,1.166.016,2.347.048,3.545.08.016,2.287-2.017,3.228-3.577,4.439a17.9,17.9,0,0,0,1.366,2.439c-.217.853-.45,1.705-.635,2.574,1.181.024,2.387.056,3.6.1-.048.94-.08,1.9-.1,2.853-.916.406-1.824.821-2.709,1.243.354,1.841.8,3.666,1.174,5.523q1.483-.048,3.014-.072c-.016,1.164-.032,2.335-.016,3.514-.635.191-1.9.59-2.54.789a20.314,20.314,0,0,0,.731,2.933c-.04.885-.072,1.769-.08,2.662a12.331,12.331,0,0,0,3.593.064c-.088,1.116-.161,2.231-.225,3.355-.522.064-1.583.183-2.114.247-.225.327-.667.972-.892,1.3a47.448,47.448,0,0,1,.892,5c1.383.016,2.765.032,4.171.08-.305.869-.587,1.753-.844,2.646a23.4,23.4,0,0,0-2.717,1c.354,1.929.683,3.865.941,5.818,1.382.08,2.773.167,4.187.279-.273,1.944-1.873,2.941-3.287,4.04a30.5,30.5,0,0,0-.081,5.284q1.929.012,3.906.048c.016.964.04,1.944.08,2.933-.9.375-1.785.757-2.66,1.148.072,2.024.145,4.048.241,6.073,1.278,0,2.564,0,3.874.008.016.582.04,1.761.048,2.343-1.085.717-2.154,1.443-3.215,2.16a30.872,30.872,0,0,1,.964,5.212c1.246.016,2.508.048,3.786.08.024.55.088,1.642.121,2.184q-1.712.968-3.392,1.944c.177,1.626-.153,3.411.547,4.933,1.069.582,2.379.406,3.585.638.016-2.909-.249-5.841.241-8.718a12.715,12.715,0,0,1,2.106-1.562c-.466-5.443,1.688-10.83.378-16.209a18.074,18.074,0,0,1,.755-4.024c.611-.263,1.23-.526,1.865-.789a22.383,22.383,0,0,1,.771,6.854c.289,4.574.129,9.22,1.165,13.723,2.3-.032,4.509.542,5.45,2.861.249,3.052,1.712,5.905,1.591,9.013a28.521,28.521,0,0,0,.619,6.383c-.064.128-.193.383-.257.518a46.89,46.89,0,0,1,2.4,8.981c1.439,3.212,3.995,6.232,3.649,9.946.329,6.28-1,12.5-.571,18.768.619-.924,1.23-1.857,1.849-2.773-.273-.367-.828-1.084-1.1-1.442,1.31-4.128.635-8.487.772-12.735.378-.271,1.133-.821,1.519-1.092,1.334-5.443.346-11.061,1.262-16.536,2.966,2.231,1.72,6.232,2.066,9.4-.137,2.614,1.575,4.758,2.315,7.156.418,3.9-.595,8,1.021,11.739,1.945,5.411.1,11.165,1.624,16.632.337.359,1,1.068,1.334,1.427.217,1.387.45,2.781.651,4.184.884-6.24.185-12.536.289-18.8.088-3.538-.482-7.188.627-10.623,1.439-4.144,1.077-8.6,1.7-12.878q.892,1.626,1.817,3.275a17.641,17.641,0,0,1-.6-8.073c.651-3.475-.04-7.085,1.013-10.487,1.382-4.79,1.222-9.818,1.977-14.711-.257-.367-.779-1.1-1.045-1.466a52.882,52.882,0,0,1,2.451-5.284c.74,1.793,1.575,3.706,1.31,5.706-.522,5,.547,9.961,1.286,14.886,1.222.239,2.443.47,3.689.709.354,1.5.225,3.267,1.222,4.542,1.495.924,3.384.661,5.08.948.386-1.785.764-3.562,1.085-5.347-1.045-.5-2.106-.988-3.135-1.458-.024-.94-.024-1.881,0-2.813,1.342-.024,2.693-.032,4.067-.04a40.629,40.629,0,0,0-.225-5.236c-.772-.558-1.527-1.116-2.259-1.674-.08-.893-.153-1.777-.2-2.654,1.19.032,2.387.072,3.609.112.265-1.793.579-3.586.756-5.387-1.149-.661-2.266-1.323-3.384-1.976.016-.566.048-1.7.065-2.263,1.318-.024,2.644-.04,3.995-.04.008-1.825.016-3.642.048-5.459-.836-.367-1.648-.733-2.452-1.084q-.048-1.506-.048-2.989c1.27-.016,2.564-.024,3.866-.024.072-1.785.153-3.57.249-5.339q-1.7-.98-3.352-1.945c.056-.542.185-1.626.241-2.16,1.278-.064,2.564-.112,3.866-.159.008-1.793.016-3.586.04-5.371-.828-.414-1.648-.821-2.451-1.219q-.024-1.458,0-2.893c1.31-.04,2.644-.072,3.987-.1,0-1.705,0-3.411.016-5.108-1.117-.709-2.21-1.411-3.3-2.128.072-.542.2-1.642.265-2.192,1.431-.016,2.845-.024,4.308-.024-.088-1.849-.169-3.7-.434-5.523-.828-.39-1.64-.781-2.443-1.164-.008-.972.008-1.936.032-2.893,1.31-.016,2.644-.024,3.987-.024q-.012-2.726,0-5.427l-2.435-.414c-.072-1.267-.137-2.526-.161-3.777,1.222.12,2.459.239,3.721.375a14.235,14.235,0,0,0-.169-5.65c-.948-.43-1.873-.869-2.789-1.307.265-.932.547-1.849.844-2.765,1.125.1,2.267.183,3.416.271-.016-1.953-.016-3.889-.008-5.826-.6-.12-1.809-.351-2.4-.462.008-1.164.032-2.319.089-3.467,1.254-.247,2.845.709,3.81-.438a15.478,15.478,0,0,0-.755-4.917c-1.7-.622-2.331-2.192-2.725-3.8a26.521,26.521,0,0,0,4.485-.3q-.145-2.845-.289-5.666c-.547-.143-1.623-.43-2.17-.574-.032-.94-.048-1.881-.048-2.813,1.423-.223,2.869-.43,4.324-.638-.361-1.785-.747-3.562-1.214-5.315-1.551-.63-1.664-2.239-1.945-3.626q1.941-.06,3.93-.1c-.112-2.072-.249-4.144-.362-6.208l-2.226-.319c-.056-1-.1-1.976-.121-2.957,1.406-.024,2.821-.04,4.252-.056a36.979,36.979,0,0,0-1.125-5.786c-1.487-.733-1.583-2.351-1.857-3.738,1.3,0,2.62.008,3.962.032.908-2.757-.353-5.244-2.2-7.26-.016-.582-.056-1.745-.072-2.335,1.214-.016,2.435-.024,3.681-.032a9.755,9.755,0,0,0-2.5-6.869c-.064-.893-.1-1.769-.121-2.646,1.383-.032,2.789-.072,4.212-.1.563-3.7-3.376-5.873-3.078-9.491,1.222-.008,2.459-.008,3.713-.008.08-1.108.177-2.207.289-3.307-.972-1.052-1.937-2.1-2.917-3.108a14.3,14.3,0,0,1,.683-2.67,12.963,12.963,0,0,1,3.577-.725c-.048-1.012-.08-2.032-.1-3.036a6.918,6.918,0,0,1-2.685-5.5,34.4,34.4,0,0,1,4.364-.59c-.064-1.2-.112-2.383-.129-3.578-1.029-.988-2.05-1.952-3.127-2.869.016-.638.056-1.913.073-2.55,1.334-.207,2.684-.4,4.051-.59-.048-1.267-.056-2.526-.064-3.777-.828-.741-1.632-1.474-2.419-2.215-.008-.988,0-1.976.024-2.957,1.134.032,2.283.072,3.44.112a25.873,25.873,0,0,1,.739-4.216c-1.487-.885-3.086-2-3.1-3.9-.306-1.506,1.736-1.737,2.733-2.16l1.069-.191a88.479,88.479,0,0,0,1.358-9.507c-.354-1.148-1.463-1.9-2.146-2.845-.04-.454-.1-1.363-.145-1.817,1-.8,2-1.594,3.03-2.375.217-3.323.956-7.061-1.375-9.85-.482.024-1.455.08-1.937.1a15.163,15.163,0,0,0-1.841-2.965c-.418-1.682-.74-3.379-1.021-5.076a17.543,17.543,0,0,1,6.607-.375,21.9,21.9,0,0,0-1.069-5.714c-1.334-.343-2.652-.725-3.954-1.1-.008-1.395-.016-2.8.008-4.184,1.873-.231,3.737-.51,5.626-.765.016-2.478-.506-5.044.137-7.467.876-1.578,3.022-3.714,4.83-2.064,2.443,1.57,2.58,4.59,1.728,7.077,1.173,2.144,3.44,2.877,5.787,3-.193,1.339-.37,2.678-.538,4.024a6.948,6.948,0,0,0-4.156,3.443c.322.837.651,1.689,1,2.542,1.029.351,2.066.709,3.135,1.052,1.736,2.223,1.945,4.957,1.808,7.674-1.985.606-4.791.709-5.449,3.092-.627,2.63.313,5.284.747,7.874.828.8,1.672,1.578,2.54,2.367a15.052,15.052,0,0,1-2.676,4.9c.41,2.925.989,5.826,1.68,8.7.948.135,1.9.271,2.885.406q.567,1.686,1.182,3.371a11.825,11.825,0,0,0-3.432,4.527,34.965,34.965,0,0,1,4.027,2.566c.056,1.06.145,2.12.217,3.188-1.768.494-2.259,2.207-2.162,3.825a31.713,31.713,0,0,0,3.786,2.686c.048,1.921-.547,3.57-2.4,4.439.193.909.4,1.817.635,2.733,1.72,1.076,3.633,2.646,3.2,4.933a19.761,19.761,0,0,0-2.4,1.626c-.008,1.084.008,2.168.04,3.259.482.064,1.431.183,1.9.247q.747,1.172,1.543,2.343c-.1,1.028-.185,2.056-.257,3.092-.6.048-1.8.151-2.4.2-.008,1.148,0,2.3.032,3.467,3.215.04,4.421,3.14,4.212,5.9-.675.032-2.017.1-2.693.135-.016,1.259-.008,2.518.008,3.777.538.056,1.607.159,2.138.215.587.916,1.2,1.825,1.833,2.741,0,.853.008,1.713.04,2.574-.547.064-1.64.175-2.186.239-.313.717-.611,1.45-.892,2.184.225.39.691,1.179.916,1.57.426.072,1.286.215,1.712.279.731.988,1.495,1.952,2.3,2.909-.627,2.255-3.231,3.092-3.85,5.379.876.454,1.76.9,2.668,1.355.651.964,1.318,1.929,2.009,2.893-.064.622-.193,1.849-.257,2.47-.611.008-1.824.04-2.435.056,0,.861.024,1.729.08,2.6a15.786,15.786,0,0,1,3.971,4.08c-.04.877-.064,1.753-.072,2.646-.595.08-1.784.231-2.387.311.016.837.048,1.682.1,2.526a16.919,16.919,0,0,1,3.938,4.088c.008.438.04,1.315.048,1.753-1.246.956-2.556,1.817-3.842,2.7.948.677,1.913,1.355,2.917,2.008.088.335.273,1.012.362,1.347,1.656.972,1.479,2.877,1.632,4.519-.675.056-2.026.167-2.693.215-.024.964-.024,1.929-.008,2.9.595.072,1.784.207,2.379.271l.1,1.761c2,.677,1.615,2.773,1.792,4.439-.667.024-2,.08-2.66.112-.024,1-.024,2-.008,3.012.659.064,1.969.2,2.628.263-.321.677-.619,1.371-.9,2.064.892.375,1.8.757,2.717,1.148a4.917,4.917,0,0,1-2.773,3.554c-.032.518-.081,1.554-.1,2.072.41.183,1.238.542,1.656.725,0,.582.008,1.745.008,2.327.8.223,1.608.446,2.427.677-.04,1.012-.064,2.04-.072,3.068l-2.146.223c-.322.422-.973,1.267-1.294,1.7.852.6,1.76,1.116,2.644,1.721.008.462.032,1.387.048,1.841.916.406,1.841.829,2.781,1.259-.217,2.024-1.607,3.052-3.537,3.4.016.335.056,1,.081,1.331,1.415.877,1.575,2.51,1.913,3.985.554.143,1.664.422,2.218.558-.072,1.02-.129,2.04-.177,3.06-.627.1-1.865.271-2.492.359V576.9c.41.327,1.222.98,1.631,1.315-.032,1-.048,2.024-.048,3.052.442-.255,1.334-.757,1.776-1a15.49,15.49,0,0,1,.683,3.2c-1.061.733-2.218,1.307-3.279,2.016.8.8,1.607,1.594,2.435,2.4-.016.446-.048,1.323-.064,1.761a21.256,21.256,0,0,0,2.524,1.267c.651,2.494-2.186,3.291-3.737,4.542.531.287,1.583.861,2.106,1.148-.024,1.116-.032,2.231-.016,3.363a6.883,6.883,0,0,1,3.328.478,22.88,22.88,0,0,0-.707,3.124l-2.588.032c.032.406.088,1.235.121,1.65,1.68.972,1.366,2.869,1.455,4.5.683,0,2.05-.008,2.733-.008-.1,1.084-.177,2.184-.249,3.283-.619.04-1.848.12-2.467.167v1.944c.362.319,1.085.948,1.447,1.267-.281.98-.587,1.952-.828,2.949q1.688-.012,3.424,0c-.048,1.02-.08,2.048-.088,3.084-.611.08-1.817.223-2.427.295.434,2.032.8,4.072,1.077,6.144.989,0,1.985.016,3.006.04l.032,2.3a10.672,10.672,0,0,0-2.612,1.9c.313.741.611,1.506.876,2.3-.016,1.02-.024,2.04-.032,3.068l2.91-.032c-.064,1.068-.113,2.152-.145,3.228-.715.072-2.154.207-2.87.279.378.765.764,1.53,1.173,2.3-.032,1.283-.056,2.566-.064,3.865,1.109-.064,2.234-.112,3.384-.151-.04,1.092-.073,2.192-.088,3.3l-2.628.159c.434,2.072.82,4.152,1.109,6.256.474.008,1.431.008,1.9.016.169-.51.5-1.522.667-2.024-1.262-4.423.579-8.918-.345-13.333a6.93,6.93,0,0,1,2.21-4.248c.225-5.26,1.342-10.487.707-15.755.056-1.506-.032-5.068,2.331-4.184a42.858,42.858,0,0,1,1.447,4.3c-.12,1.562-.217,3.14-.225,4.718.362-1.235.691-2.486,1.029-3.73.563,0,1.7-.008,2.259-.008,1.447,6.288-.82,13.165,2.339,19.046,1.4,2.757.466,5.937.908,8.886a35.724,35.724,0,0,1,.394,9.444l1.833.159c.016,2.965-.362,6.033.675,8.878,1.375,3.562.635,7.475,1.712,11.109-.2.335-.595,1.012-.788,1.355.024,4.55-.04,9.1.161,13.659a10.079,10.079,0,0,0,1.359,4.558c.008-3.65-.394-7.372.747-10.9,1.334-4.455.948-9.141.932-13.715.4-.223,1.214-.661,1.616-.877.024-1.052.072-2.1.137-3.132,2.041-.167,3.946.582,4.324,2.8.5.909,1.4,1.69,1.278,2.869.088,4.6-.048,9.292,1.479,13.715,1.013,2.805.683,5.794.852,8.71.072,2.789,2.106,5.084,2.331,7.85.322,3.953-.45,8.017.715,11.89,1.029,3.419.8,7.069,1.921,10.48,1.318,4.136.394,8.511.8,12.759.153,1.036,1.415,1.411,2.042,2.192.989,3.953.5,8.049.836,12.081-1.286,6.049-.386,12.289-.555,18.425-.329,2.765,1.4,5.124,3.336,6.925-.193.4-.571,1.2-.756,1.594,1.029,5.06.418,10.24.579,15.365-.49,11.436.169,22.88.024,34.331,1.021.829,2.033,1.674,3.086,2.518.04,1.171,0,2.359-.04,3.546-.37.351-1.1,1.052-1.471,1.4-.1,3.921-.2,7.921.932,11.739.788.239,1.583.478,2.411.733.29-.159.876-.478,1.165-.638a29.824,29.824,0,0,0,7.531.717c5.667-.223,11.269.956,16.943.765,3.633-.159,7.234.869,10.875.351a67.733,67.733,0,0,0,9.854.446c2.427-.08,4.911,1.052,7.282.064,1.1.143,2.2.327,3.327.526.072-.47.217-1.419.289-1.889.659.646,1.318,1.307,2,1.976,1.72-5.7.515-11.707.868-17.54.33-2.893-.8-5.515-1.961-8.065.763-1.092,1.623-2.128,2.379-3.235.812-5.236-.426-10.519-.418-15.779q.024-12.755.024-25.51c.1-2.056-.868-3.9-1.672-5.714.2-.343.6-1.02.812-1.363-.884-4.909-1.222-9.97-3.713-14.424.731-.645,3.239-.622,2.564-2.207-.04-1.45-1.254-3.4.153-4.5,1.278-1.434,2.492.789,3.673,1.363,1.037-1.211,2.106-2.415,3.191-3.6a29.585,29.585,0,0,0,3.963.693c1.1-5.586,1.117-11.46-1.2-16.759.82-.717,1.7-1.411,2.556-2.112a24.366,24.366,0,0,0-.4-13.364c2.749-2.223,2.09-5.905,2.46-9-1.961-4.638,1.768-8.846,1.141-13.508-.073-2.128-1.045-4.343.056-6.351,1.688-3.451.322-7.332,1.021-10.958,1.053-4.805.394-9.778,1.5-14.584,1.567-16.217,2.765-32.467,4.356-48.684a30.363,30.363,0,0,0-.048-10.44c1.374-3.028,1.438-6.359,1.278-9.619a26.49,26.49,0,0,1-2.926-1.634c-.168-1.148-.322-2.287-.378-3.427,1.141.064,2.291.143,3.464.223.49-3.068.828-6.168,1.109-9.26.4-.008,1.214-.016,1.624-.016.482,2.917.924,5.849,1.221,8.8l3.231-.048c.1,1.259.217,2.526.33,3.8-1.117.646-2.91.725-3.231,2.2a27.9,27.9,0,0,0,.611,6.678,4.447,4.447,0,0,1,.362,4.654c1.543,18.162,3.979,36.252,5.8,54.382-.008,3.506,1.31,6.87.948,10.392-.217,2.749,1.519,5.228,1.27,7.977-.177,2.391-.474,4.853.41,7.164.4,1.721,1.664,3.355,1.141,5.2-.908,3.212-.161,6.495.458,9.691.394.367,1.189,1.1,1.591,1.466-.522,3.522-1.447,7.133-.651,10.695.571,2.12,3.842,3.506,2.411,5.937-1.849,4.519-2.122,10.583,2.251,13.795a22.265,22.265,0,0,0-.884,14.958,11.96,11.96,0,0,1,6.036,5.323c.394-1.953,2.033-2.9,3.786-3.57,1.64,2.988,1.479,6.75,3.9,9.34.048,2.367-2.508,3.666-2.452,5.977-.048,3.546-.836,7.093-.249,10.631-.466.964-1.382,1.8-1.4,2.925-.137,14.257.86,28.506.7,42.771q1.206,1.112,2.475,2.255V831.9c-.41.343-1.222,1.028-1.624,1.371.281,6.575-.756,13.277.892,19.74.563.606,1.141,1.227,1.744,1.849l1.206-1.068c2.009.351,4.075.837,6.133.359a74.727,74.727,0,0,1,14.974-1.068l1.39-.8a13.271,13.271,0,0,0,5.843-.048c.354-.183,1.069-.542,1.423-.725,1.768-.016,3.545-.08,5.345-.143q1.133-.741,2.242-1.578a14.643,14.643,0,0,0,2.3,1.028c.4-.319,1.2-.948,1.6-1.259.45.271,1.342.821,1.784,1.092.321-.191.956-.582,1.27-.781,2.8-.239,7.137,1.522,8.271-2.1a4.492,4.492,0,0,0,1.969,2.064c.8-.231,1.632-.446,2.475-.653.466.016,1.407.064,1.873.088.346-.263,1.029-.781,1.374-1.036,3.279.932,6.663-.151,10.007.04.362-.255,1.077-.765,1.439-1.02.611.128,1.833.4,2.444.534.378-.335,1.149-1.012,1.527-1.355.5.247,1.5.741,2,.98l1.165-.741a65.292,65.292,0,0,0,7.17-.088,27.744,27.744,0,0,1,7.491-.606c.386-.271,1.149-.829,1.535-1.1.627.167,1.889.51,2.524.677.329-.614,1-1.841,1.334-2.455.675.8,1.334,1.5,2.114,2.263a6.489,6.489,0,0,0,1.873-1.968c.6.2,1.246.382,1.913.542,3.994-.454,8.013-.016,12.016-.518.362-.351,1.085-1.06,1.455-1.419.233-.024.7-.08.932-.1a11.4,11.4,0,0,1,1.969,2.136c.177-.63.538-1.9.723-2.526,1.021.5,2.025,1.012,3.078,1.538l1.2-2.5c.788.773,1.495,1.562,2.283,2.4.635-1.036,1.262-2.08,1.961-3.092l1.029,1.785c-.177-1.538.86-2.6,1.856-3.6.153-1.363.29-2.717.442-4.064-.948-.422-1.889-.837-2.8-1.243-.836-2.725,2-3.937,3.681-5.435,2.492,1.132,4.774,2.821,4.911,5.794.466.478.957.972,1.471,1.466-.418,1.339-.812,2.686-1.206,4.04.82.032,2.46.08,3.28.1-.193,2.5-2.58,3.817-3.48,6,1.214.135,2.444.279,3.7.422q.072,2.271.177,4.566c-.555.056-1.68.175-2.242.231-.37.773-.715,1.546-1.037,2.335,2.926,5.371,4.855,11.284,8.455,16.281,1.833,5.355,4.7,10.264,7.427,15.205.587-.159,1.752-.478,2.331-.63.683,3.427.8,7.005,2.258,10.248,1.543-5.26.852-10.814,1.246-16.209.547-.008,1.64-.032,2.186-.04.836-3.833.82-7.77,1.438-11.627.538-3.076-1.222-6.232.538-9.117.828-.016,1.672-.016,2.54-.016,1.881,2.845-.1,6.033.812,9.069,1.125,5.371,1.326,10.87,2.026,16.313.265,2.152,1.5,4.04,1.937,6.168a59.525,59.525,0,0,1,.538,6.567c3.159,2.367.876,6.638,2.435,9.842.209-2.152.032-4.367.635-6.455,3.038-6.925.546-14.671,2.283-21.859,1.125.789,3.287.789,3.384,2.558.876,6.383-.152,13.085,1.9,19.278a186.3,186.3,0,0,0,.788-19.748c.844-.12,1.712-.223,2.6-.319a166.182,166.182,0,0,0,1.422,16.7c.595,3.259-.522,6.973,2,9.651.1,2.415-.177,4.941.78,7.252,1.728,4.279.145,9.045,1.6,13.412.6-.024,1.8-.08,2.4-.1.8,8.009,1.583,16.042,3.914,23.788a86.741,86.741,0,0,0,.571-11.826c.563.064,1.68.183,2.243.239.265,4.016.611,8.033.884,12.057a58,58,0,0,0,1.688-16.879c.852-.008,1.728-.008,2.62.008-.627,9.2,3.078,17.939,3.32,27.071.707-.191,2.122-.582,2.829-.781.74,1.211,1.527,2.415,2.3,3.642q1.278.1,2.628.215c1.15.988,2.307,1.992,3.456,3.02.281-3.092.7-6.16,1.206-9.22.916-.167,1.856-.335,2.813-.486,2.387-6.981-1.061-14.2.627-21.222.683-6.288,2.7-12.576,1.519-18.935a30.446,30.446,0,0,1,3.087-.04,13.665,13.665,0,0,1,.04,2.869c.771,1.5,1.72,3.028,1.6,4.805-.491,5.937,1.511,11.659,2.491,17.445,1.238,4.782-.675,9.691.49,14.5l2.106.191c1.133.63,3.85,2.885,3.778.239,1.117-8.934-2.041-17.963.161-26.832.964-3.769,1.608-7.722.587-11.547.908-.112,1.841-.2,2.789-.287a46.342,46.342,0,0,0,1.688,11.484c1.471,4.4.249,9.252,2.58,13.428.169,3.69.37,7.435,1.873,10.91,2.893,3.379,2.049,7.945,2.588,12.034.8,5.81-1.407,11.675.514,17.4,1.591.032,3.191.12,4.831.112.715.869,1.519,1.65,2.307,2.518,1.23-4.877.337-9.93.1-14.863-1-4.742-.129-9.6,1.278-14.161,1.318-4.279,1.157-8.814,1.149-13.237.908.024,1.849.048,2.813.1a47.444,47.444,0,0,0,.426,9.428c.571,2.981,1.84,5.778,2.524,8.742,1.7,6.025-.8,12.217.41,18.321-.329,1.793,1.431,2.375,2.644,3.243a38.383,38.383,0,0,0,1.246,5.746c1.857,5.108.506,10.607,1.278,15.883-.073,8.479,1.953,16.807,1.808,25.3-.169,5.06.37,10.1.3,15.173.177,1.251-.394,2.925.78,3.857.354-.566,1.045-1.7,1.4-2.255.41.008,1.222.032,1.632.048.193,3.323.129,6.75,1.286,9.938,7.676.1,15.335-.677,23.019-.446,4.694.215,9.356-.661,14.066-.462,14.6-.351,29.192-1.363,43.82-1.124,5.361.159,10.658-.964,16.035-.741,6.719.183,13.391-.8,20.118-.821,6.446-.271,12.94.367,19.37-.534,6.133-.335,12.289-.223,18.446-.335v271.767H0V970.279q1.929-.992,0-1.411v-9.794a6.056,6.056,0,0,1,5.988-.056c2-2.765,3.48-6.144,6.7-7.722.129,1.634.225,3.291.474,4.933.635.877,1.792,1.14,2.668,1.721.1,1.3-.032,2.574-1.238,3.371,3.127.024,6.036,1.275,9.058,1.921.048.47.137,1.411.185,1.881-1.583.215-3.175.446-4.766.669q-1.471-.323-2.942-.6c.257.518.772,1.554,1.029,2.08a25.552,25.552,0,0,1,5.337.558c.675.032,2.025.1,2.7.135a14.274,14.274,0,0,1,.49-9.946c1.045.072,2.1.159,3.151.255-.852-2.686.281-5.411.33-8.113.354-3.052-1.061-5.993-.611-9.029a32.456,32.456,0,0,0-.378-7.443c.643-.088,1.929-.255,2.564-.343a84.669,84.669,0,0,1-.8-10.567c-2.114-.048-4.236-.088-6.35-.112-.048-.446-.153-1.331-.2-1.777,1.222-.271,2.443-.542,3.665-.773-.1-1.084-.2-2.16-.3-3.228.5-.04,1.5-.135,2.009-.175.032,1.379.08,2.765.129,4.16a5.026,5.026,0,0,0,2.146-3.331,22.353,22.353,0,0,0,.723-6.949c-1.39-1.857-.908-4.088-.715-6.224,1.608.1,3.215.247,4.814.391.04,1.737.048,3.483.04,5.236-.386-.008-1.173-.008-1.559-.016-.129,3.323-.1,6.646.008,9.977,2.468.136,4.935.247,7.4.383v2.223c-1.712.1-3.432.2-5.144.295.41,4.072-.088,8.184.595,12.241a52.713,52.713,0,0,0-.129,14.05c.362,2.215-.257,4.407-.506,6.615a45.987,45.987,0,0,0-.024,12.822,30.84,30.84,0,0,1,7.732-.988c.064-.462.2-1.379.273-1.841.836-.032,1.68-.064,2.516-.08.169.438.506,1.3.675,1.737a27.664,27.664,0,0,0,7.692-.311c12.53-.773,25.037-1.889,37.575-2.686l-1.961-.956c-.362-4.606.346-9.9,4.622-12.6,3.649,2.829,2.242,7.722,2.435,11.691,1.262-4,2.741-8.208,1.64-12.424a32.113,32.113,0,0,0,2.644-12.711c1.937-1.124,1.262-3.626,1.471-5.5-.563-.135-1.7-.4-2.259-.534-.113-1.705-.209-3.411-.313-5.1.78-.845,1.567-1.681,2.331-2.518a9.664,9.664,0,0,1-1.752-3.164c1.021-1.291,2.009-2.59,2.99-3.9-2.725-.988-6.671.239-8.126-2.845a62.423,62.423,0,0,1,6.864-1.211c.088-2.845-.233-6.216,2.524-7.985-.153-1.172-.321-2.343-.474-3.5-1.961.032-3.922.064-5.875.112.129-1.172.265-2.327.4-3.483.852-.056,1.712-.1,2.572-.144-.04.422-.121,1.251-.161,1.666.764.088,2.283.255,3.046.335.016-1.6.024-3.188.024-4.774-1.013.088-2.025.183-3.038.3-.338-1.068-.7-2.1-1.037-3.148.458-.885.924-1.777,1.382-2.646q2.351-.167,4.718-.279c2.218.422,4.461.685,6.711.885.064,1.65.113,3.3.153,4.973-1.8.255-3.6.558-5.385.924-.04,1.163-.1,2.335-.145,3.53,1.1.143,2.21.311,3.311.5a13.7,13.7,0,0,1-3.971,2.471c.088.877.169,1.769.257,2.67,2.138,2.128,2.516,5,2.291,7.89,2.154.127,4.3.351,6.438.685-.233.709-.458,1.419-.683,2.152a20.238,20.238,0,0,0-7.893,1.442c1.688.367,3.376.685,5.08.972-.1.574-.289,1.737-.386,2.319,1.206.271,2.4.574,3.609.9-2.2.637-4.043,2.16-6.366,2.447.008,1.945.04,3.889.064,5.849,1.093.056,2.2.112,3.3.183-.04.383-.113,1.147-.145,1.53-.94.144-1.873.3-2.805.47a119.939,119.939,0,0,1-.78,16.895c.129-.8.378-2.4.506-3.2l1.222.008c.161,1.387.322,2.805.482,4.216q.952.932,1.9,1.913a13.209,13.209,0,0,1,3.971-3,22.237,22.237,0,0,0,7.788-.1c2.676-.558,4.6,1.8,6.438,3.323-.024,1.69-.032,3.395-.04,5.108.78.359,1.551.765,2.307,1.2.852-.717,1.937-.861,2.492-2.04.338.478,1.013,1.419,1.35,1.9,1.7.04,3.4.112,5.1.207.129,2.343.257,4.694.482,7.045,1.366-.04,2.733-.056,4.1-.072.338.367,1,1.1,1.334,1.458,5-.12,10,.183,15,.2,1.937.072,5.12.542,4.879,3.116-.217,6.917.442,13.891-.747,20.752-.193,6.112-.868,12.209-.723,18.329.072,10.089-.354,20.17-.193,30.259.185,4.8-.587,9.7.683,14.408,10.585-.518,21.139.781,31.724.47a32.6,32.6,0,0,1-.852-7.427c1.157-.414,2.315-.821,3.48-1.211.072,2.805.137,5.61.265,8.423,2.813.04,6.494,1.6,8.769-.382.466-6.08-.257-12.2.466-18.265,1.109-10.041-.145-20.162.908-30.2.747-9.029-.1-18.106.844-27.119.233-12.225.305-24.458.908-36.666a53.756,53.756,0,0,0-11.019-.829c-4.268.1-8.48-.677-12.731-.861-3.183-6.83-3.328-14.863-7.732-21.126-.611-2.351-.739-4.789-1.214-7.156,1.881-.614,3.914-.893,5.626-1.9,1.141-1.275,2.267-2.558,3.512-3.722q.892,1.709,1.776,3.451a9.128,9.128,0,0,0,3.022-7.379c-1.624-.295-4.935-.231-4.332-2.717,1.5-1.315,3.536-1.713,5.417-2.2,1.109-.725,2.21-1.442,3.32-2.152.281.59.828,1.753,1.1,2.335.9-.685,1.792-1.371,2.676-2.064.217-2.558,2.074-4.327,4.019-5.786a18.194,18.194,0,0,1-6.864-1.626c-.024-.51-.08-1.53-.1-2.04,1-.494,2.017-.932,3.022-1.387.362-2.638.659-5.284,1-7.921,2.709,1.658,1.294,5.323,1.824,7.929,2.017-.494,4-1.275,5.176-3.076,1.069-1.044,2.162-2.064,3.3-3.02.989-2.271,2.419-4.431,2.66-6.933,1.246-8.439.33-17,1.511-25.438-.313-8.288,1.182-16.5.868-24.776-.1-5.6.94-11.157.8-16.751-.185-7.738,1.616-15.333,1.816-23.047.627-6.909.088-13.851.49-20.768,1.069-.008,2.146,0,3.223.016.193.558.587,1.682.78,2.239-.619,5.865-.273,11.771-.611,17.66-.45,5.634,1.149,11.141,1.35,16.759.41,11.149.008,22.322.321,33.487.145,5.586-.233,11.189.426,16.759.643,7.969-.056,15.986.362,23.963.651,2.6,2.009,4.973,2.789,7.555l1.977.1c.016.59.04,1.761.048,2.343,1-.263,2.009-.526,3.014-.781.924-1.689,2.508-1.084,3.842-.3.33-.08,1-.255,1.334-.343,0,1.562,0,3.132-.016,4.7,1.262.414,2.516.837,3.794,1.243,0,.47.008,1.4.008,1.865q-2.52.968-5.023,1.968c-.4-.239-1.206-.717-1.607-.964a18.538,18.538,0,0,0-6.1,4.526,22.029,22.029,0,0,0-1.519-4.79,59.408,59.408,0,0,0-.209,7.937,12.042,12.042,0,0,1,1.672-2.271c.8.909,1.591,1.833,2.427,2.742.338-.128,1.029-.375,1.366-.5a28.357,28.357,0,0,0,5.128-1.2c2.025,3.275,6.245,2.271,9.5,2.486,1.061.311,2.13.614,3.207.94.016.821.024,1.666.04,2.51a15.06,15.06,0,0,0-4.951,3c-.1-.4-.3-1.187-.394-1.586a29.958,29.958,0,0,1-6.792.685c.008.661.016,1.984.024,2.646l1.19-.064c.418,1.323.844,2.638,1.286,3.969.386-.319,1.149-.972,1.535-1.3.281.255.836.757,1.117,1,.563-1.092,1.5-1.992,2.773-1.227,4.863,1.283,9.741,2.877,14.805,3.028a59.161,59.161,0,0,1-4.581,12.129c-3.022,4.837-3.689,10.687-5.851,15.843-3.046,1.426-6.575,1.283-9.878,1.411-4.613.04-9.187.654-13.792.813-.932,12.44-.354,24.928-.635,37.392.121,20.433.1,40.866.193,61.3-.072,5.069.764,10.1.611,15.181,1.061-.008,2.122,0,3.191.024v4.24c.482-.072,1.439-.223,1.921-.295.249.486.747,1.466,1,1.961a48.112,48.112,0,0,1,4.871-2.271c.064,1.179.121,2.367.177,3.57,4.887,1.179,9.934.669,14.91.749a37.877,37.877,0,0,0-.153-9.587c-.354,1.769-.675,3.53-1.021,5.323a2.463,2.463,0,0,1-1.326-2.144c-.233-3.546,0-7.109.048-10.647,1.286.43,2.516,1.028,3.842,1.355l-.627-1.172c.611.223,1.841.661,2.451.885.8,4.08-.474,8.145-1.045,12.177.908-.279,1.824-.534,2.741-.773.088,1.044.193,2.12.289,3.2-1.117.391-2.234.8-3.344,1.235,4.1.111,8.246.024,12.249,1.044q-.012,3.526-.008,7.077a63.006,63.006,0,0,0,7.258-.151c2.4-.43,4.75-1.307,7.226-.972,6.173-.733,12.4-.3,18.607-.446,4.123-4.909,7.941-10.065,12.088-14.958,11.188-13.141,21.565-26.952,32.825-40.029a82.373,82.373,0,0,1,8.246-9.563c9.806-1.02,19.668-1.251,29.474-2.255,4.831-.263,9.613-1.116,14.459-1,8.584-.661,17.152-1.594,25.768-1.705,5.57-1.1,11.325-.1,16.855-1.451-.032-3.331.362-6.861-.651-10.017.587-2.734,1.423-5.483,1.021-8.32-.924-10.926,1.061-21.844.354-32.769-.362-2.455-3.633-3.961-3.062-6.614,1.479-1.427,3.191-2.582,4.782-3.865-.072-8.957-.008-17.915-.032-26.872-.064-5.052.772-10.065.683-15.11,0-18.321.225-36.635.088-54.948-1.849-2.088-3.537-4.3-5.176-6.535,2.283-1.921,4.533-3.865,6.832-5.754-.048-13.484.008-26.968-.016-40.444a2.973,2.973,0,0,0-1.511-2.909c-.016-.3-.056-.909-.072-1.211,1.037-.861,2.853-1.2,2.387-2.917-.016-15.038.04-30.084-.024-45.122a30.821,30.821,0,0,1-3.456-4.782c-.458-1.992.209-4.048.378-6.041.78-4.471.8-9.109,2.291-13.436,6.623-16.919,13.841-33.6,20.68-50.429,2.259-4.957,1.8-10.511,1.849-15.8.225-1.522-.94-2.6-1.72-3.73.048-1.06.153-2.112.249-3.156a33.227,33.227,0,0,1,3.022-2.136,33.352,33.352,0,0,1,3.127,3.076c.715,1.865-1.149,3.148-2.226,4.359-.33,4.3.458,8.543.739,12.815.048,3.267,1.857,6.1,2.877,9.117,4.429,11.946,9.372,23.693,13.849,35.623.619,1.833,2.05,3.2,3.135,4.766,2.275,4.112,1.656,8.95,2.379,13.436.338,4.2,1.543,8.392,1.053,12.623a21.6,21.6,0,0,1-3.818,5.2c-.329,15.413-.153,30.841-.145,46.261a9.256,9.256,0,0,0,2.17,1.514c-.643,1.219-1.254,2.455-1.857,3.7,4.4.128,8.8-.175,13.206,0,3.432-4.614,5.337-10.1,8.19-15.038,3.6-6.32,6.679-12.91,10.312-19.206,3.6-5.6,3.408-12.5,5.4-18.68,7.226-34.563,15-69.006,22.4-103.528,6.872-31.694,14.234-63.292,20.793-95.049,3.4-14.727,6.43-29.542,9.958-44.245.659-3.02,0-6.081-.772-9.005-1.069-1.395-2.1-2.805-3.167-4.176a9.948,9.948,0,0,1,3.456-7.2c.04-.375.128-1.124.169-1.5.354-.343,1.069-1.02,1.423-1.363.2-2.574-.2-5.076-2.387-6.718l-.161-1.785c.643.008,1.921.032,2.564.048-.892-1.57-1.825-3.124-2.749-4.662.7.064,2.106.191,2.813.263-.956-1.705-1.921-3.411-2.853-5.108l3,.446c-1-1.793-2.034-3.586-3-5.4.924.343,2.781,1.02,3.705,1.363-.37-2.351-1.391-4.829-.233-7.132a12.2,12.2,0,0,1-4.63-5.451c-.442-1.419-2.114-1.514-3.239-2.1-.024-.375-.064-1.14-.08-1.514l3.143-.048c.442-1.259.908-2.51,1.382-3.761.892-.383,1.784-.773,2.693-1.148.916-1.315.434-3.642,2.21-4.216,1.206,1.084.844,2.829,1.125,4.271a8.853,8.853,0,0,1,4.654,6.383c1.013.112,2.033.223,3.062.343.008.446.032,1.339.048,1.785-1.045-.064-2.074-.12-3.094-.167a7,7,0,0,1-4.75,5.331c.032,2.279-.008,4.566-.072,6.846.651.135,1.961.4,2.612.526a5.6,5.6,0,0,1-1.7,3c.362.972,1.27,1.785,1.366,2.845a12.7,12.7,0,0,0-1.358,2.08c.53.869,1.141,1.7,1.632,2.606-.442.359-1.334,1.076-1.776,1.442.635.988,1.077,2.112,1.712,3.124-.932,1.068-2.628,1.873-2.54,3.506a15.955,15.955,0,0,0,.972,5.929c1.5,1.044,3.183,2.176,3.512,4.12,1.109,2.71-.908,5.2-2.46,7.236a11.172,11.172,0,0,1-1.744,3.395,79.955,79.955,0,0,0,3.448,17.3c-.08.255-.241.757-.33,1.012,2.789,10.472,4.051,21.27,6.655,31.789,5.618,28.96,11.807,57.809,17.658,86.729,4.2,21.533,8.9,42.986,12.892,64.559,4.461,21.246,8.7,42.54,12.9,63.818,6.036,11.42,12.948,22.386,19.009,33.8,4.252-.1,8.5.064,12.755-.048a2.994,2.994,0,0,0,2.476-1.044,20.5,20.5,0,0,0-1.857-3.9c.651-.725,1.318-1.443,1.993-2.152.981-9.93.33-19.931.056-29.877.289-5.411.723-10.862.2-16.265-.8-2.056-2.459-3.658-3.761-5.411a59.951,59.951,0,0,1,.7-11.38c.354-8.232,5.088-15.293,7.8-22.872,1.889-4.016,3.705-8.057,5.353-12.177,3.657-8.511,7.611-16.9,10.834-25.589a121.367,121.367,0,0,0,1.27-15.357c-.675-1.012-1.358-2.008-1.937-3.06a3.057,3.057,0,0,1,2.05-3.578c1.487-1,2.725.829,4.011,1.379-.249,1.658-.217,3.554-1.841,4.574.233,6.3-1.3,13.181,2.074,18.919.45,1.267.9,2.542,1.326,3.833,3.408,9.515,7.523,18.768,11.052,28.243,2.371,6.551,5.594,12.8,7.668,19.461.531,6.288,1.463,12.583,1.117,18.919-1.286,1.522-2.572,3.052-3.946,4.5-.121,15.6-.032,31.208-.048,46.819.924.622,1.889,1.227,2.821,1.889-.667.7-1.334,1.411-1.993,2.12a160.238,160.238,0,0,0-.161,16.321c-.514,7.2-.418,14.4-.563,21.6.064,1.881-.153,4.152,1.423,5.547,1.728,1.562,3.536,3.044,5.232,4.654a67.393,67.393,0,0,1-5.072,6.423c-.1,24.721-.161,49.449-.715,74.162q-.3,10.388-.153,20.792c-.112,3.212,3.48,4.479,4.935,6.941a28.666,28.666,0,0,1-3.32,4.646c-.137,10.735.1,21.469-.1,32.2.08,3.387-1.1,7.037.643,10.193-.289.3-.876.908-1.165,1.211-.217,7.882.273,15.755.008,23.637-.4,9.834-.169,19.676-.225,29.518.04,3.706-.4,7.507.691,11.125,3.874,0,7.756-.032,11.638.088a50.3,50.3,0,0,0-2.025,9.38c.563-.892,1.125-1.777,1.7-2.646.048,1.395.121,2.821.209,4.24,7.9.6,15.858.112,23.743,1.02a37.009,37.009,0,0,0-.072,9.659c2.443.223,4.887.462,7.338.638,1-1.865,2.218-3.483,4.614-3.26-.772.893-1.575,1.761-2.355,2.654.723.2,1.463.414,2.21.637a29.935,29.935,0,0,1,2.267-3.26c1.037.279,2.114.406,3.175.685.659-.112,1.977-.319,2.628-.43-.354.6-1.061,1.777-1.423,2.375a38.438,38.438,0,0,1,3.247,3.012c.37-.207,1.109-.622,1.479-.837a18.981,18.981,0,0,0,3.617.709c7.812.024,15.681,1.929,23.453.192-.45-2.271-1.294-4.853.362-6.87,1.945-2.415,4.035-4.774,4.983-7.794.948,3.092,3.119,5.531,4.967,8.121.683,1.929.7,4.048,1.125,6.065,7.274,1.554,14.789-.43,22.159-.271,9.653-.43,19.4.239,29-.972,1-1.793,1.2-3.985,2.25-5.754a11.815,11.815,0,0,1,2.556-.518c3.392-.311,5.8-3.02,8.5-4.766,4.461-.048,9.468-.263,12.876,3.14,2.452.056,4.911.048,7.379.12q.337,2.654.707,5.339c.49-.414,1-.813,1.511-1.2l-.45-2.741c.257-.43.772-1.283,1.029-1.714-.056-2.988-.1-5.969-.265-8.941-.667-1.14-1.294-2.271-1.921-3.4,4.171-.064,8.415.04,12.49-1.044,4.822-1.283,9.91-.948,14.773-.024.314-.972.643-1.937,1-2.885.113.7.346,2.112.458,2.821,3.7-.024,7.4.207,11.108-.048,1.358.08,1.334-1.769,1.993-2.526.522.813.756,1.777,1.326,2.606,4.421.1,8.841.088,13.254.518-3.151,5.156-2.4,11.308-1.19,16.919,11.365-.638,22.762-.534,34.079-1.753a53.511,53.511,0,0,1,1.214-8.838c4.517-8.232,7.362-17.229,11.285-25.741,3.882-9.2,7.057-18.68,11.357-27.709,2.21,6.375,5.249,12.416,7.8,18.656,3.335,8.089,6.92,16.066,10.264,24.155,1.5,3.331,2.516,6.941,4.839,9.85,1.053,2.638.153,6,2.042,8.216,1.68.048,4.091.749,5.12-1.02.346-4.16,1.133-8.3,1.029-12.472-.346-5.331,1.254-10.559.8-15.891.233-7.866-2.009-15.922.305-23.637.362,1.291.707,2.582,1.085,3.889.466-14.408.048-28.825.249-43.233.257-3.092-1.623-5.778-1.728-8.814,1.632-1.1,3.392-2.558,3.263-4.726.04-5.228.313-10.488-.426-15.668,1.7-10.655,1.189-21.429,1.246-32.164a13,13,0,0,1,1.326-5.451c-1.214-6.184.008-12.5-.828-18.728.691-3.236-.627-7.045,1.415-9.85.731,3.315-.225,7.013,1.656,10.025,1.149-5.618-.683-11.683,1.736-17.062.129.917.4,2.741.538,3.658l.732-.064c-.314-5.929-1.833-11.922-.49-17.827a46.46,46.46,0,0,0,1.471-14.121,63.122,63.122,0,0,0,.5-10.735c-.362-.327-1.077-.988-1.431-1.315-.032-1.028-.048-2.04-.064-3.044.739-.948,1.487-1.889,2.266-2.805.338-18.018-.37-36.045.153-54.063l2.3.351c.024-4.367-.289-8.766.442-13.094a32.193,32.193,0,0,0,.193-8.384c-1.366-6.383-.683-13.062.595-19.405a54.139,54.139,0,0,1,.651,6.862c.539-2.51,1.35-5.061.82-7.651-.812-4.845.98-9.555,1.937-14.233-.089-.3-.265-.893-.362-1.2,1.7-6.511,1-13.229,1.809-19.827.41-.311,1.238-.94,1.656-1.251.731-4.774-.715-9.731,1-14.353,1.149-3.228.756-6.7,1.318-10.033.755-2.478,1.35-5,2.017-7.491,1,.048,2,.1,3.022.167.128,2.255.225,4.518.346,6.782.346.343,1.029,1.028,1.366,1.363-.056,3.283.595,6.535.554,9.818.836,1.594,1.712,3.18,2.685,4.71.064-6.288.032-12.576.016-18.863.008-3.849-.418-7.818,1.037-11.484,1.391-3.881-.418-8.408,1.873-12.01.3,1.546.643,3.092.948,4.654a51.358,51.358,0,0,1-.169-8.392c.627-5,.032-10.073.8-15.07.876-.893,1.744-1.785,2.636-2.662.571.08,1.7.255,2.275.343a14.485,14.485,0,0,1,2.548,5.929c.04-4.08.362-8.161-.12-12.217.675-1.347.3-4.423,2.435-3.985a11.173,11.173,0,0,1,.844,5.985,132.117,132.117,0,0,0,1.093,14.018,36.375,36.375,0,0,0,4.075,1.355c.362-.151,1.085-.446,1.447-.6-.008-1.817-.008-3.618-.008-5.427-.82-.375-1.632-.749-2.427-1.116-.064-1.036-.113-2.064-.153-3.084,1.375-.016,2.773-.016,4.188-.016a24.739,24.739,0,0,0-.627-6.439l-2.58-.032q-.024-1.542,0-3.06c1.326-.024,2.66-.032,4.011-.032a15.453,15.453,0,0,0,.217-6.391l-2.572-.159c-.04-1.044-.064-2.088-.072-3.116,1.326.04,2.668.08,4.035.135q-.012-3.144.008-6.272c-.611-.072-1.817-.215-2.427-.295-.089-1.148-.161-2.287-.217-3.427a20.913,20.913,0,0,1,4.292.1c-.032-1.889-.048-3.777-.072-5.65-.989-.518-2.2-.63-2.966-1.45a27.577,27.577,0,0,1-.386-2.765c1.391-.048,2.8.04,4.212-.008,0-1.849.008-3.7.008-5.539-.844-.4-1.672-.8-2.484-1.179-.032-1.012-.048-2.016-.048-3.02,1.342-.008,2.7-.008,4.075-.008.008-1.745.024-3.483.024-5.212-1.616-.98-3.119-2.16-3.464-4.1,1.519-.263,3.215-.024,4.654-.685.651-1.57.378-3.363.555-5.021-1.1-.47-2.178-.964-3.263-1.4-.056-.9-.1-1.793-.129-2.678,1.334-.024,2.685-.04,4.043-.048q.048-3.144.112-6.28c-.627-.04-1.881-.128-2.516-.167-.008-1.124,0-2.239.016-3.347,1.318.056,2.653.12,3.995.183q0-3.084.024-6.152c-.619-.072-1.84-.2-2.459-.263q-.048-1.925-.048-3.825c1.31-.016,2.636-.024,3.962-.024q-.024-2.618,0-5.212c-1.037-.486-2.057-1-3.07-1.466-.016-.972-.008-1.937.008-2.9,1.326-.008,2.669-.008,4.019-.008q.024-2.69.056-5.371c-.86-.375-1.7-.741-2.524-1.1-.024-1.028-.04-2.048-.04-3.068,1.366-.032,2.749-.056,4.139-.088-.088-1.682.153-3.435-.305-5.06-1.358-1.235-2.789-2.431-3.3-4.264,1.728-.135,3.472-.247,5.224-.367-.265-1.371-.474-2.733-.627-4.1.161-.327.482-.972.643-1.291-1.1-.4-2.194-.789-3.263-1.163-.016-.972-.016-1.945,0-2.909,1.342.008,2.693.016,4.067.04q-.108-3.06-.233-6.112l-2.234-.319c-.016-1.187-.016-2.359-.008-3.53,1.366.135,2.733.263,4.131.4a27.334,27.334,0,0,0-.5-4.3c-.731-1.8-2.524-3.06-2.934-5,1.1-1.179,2.773-.916,4.236-1.124.394-.893.1-1.9.49-2.8-.37-.765-.7-1.53-1-2.3q-1.037-.657-2.026-1.291c.008-1.012.032-2.016.072-3.02,1.358-.024,2.733-.048,4.123-.064a8.6,8.6,0,0,0-2.492-6.782c-.1-.908-.193-1.817-.265-2.717,1.423-.04,2.869-.088,4.324-.128a22.536,22.536,0,0,0-1.077-5.706,5.9,5.9,0,0,1-2.6-3.57c1.479-.1,2.982-.175,4.493-.239.072-1.267.177-2.526.3-3.777-.941-1.235-1.808-2.5-2.749-3.714-.032-.462-.089-1.379-.113-1.833,1.407-.3,2.837-.6,4.268-.909a7.349,7.349,0,0,0-2.6-6.176c-.088-.916-.153-1.833-.209-2.741,1.358-.191,2.749-.367,4.131-.558-.016-1.179-.016-2.343-.008-3.506a9.9,9.9,0,0,1-3.456-5.443c1.447-.247,2.926-.494,4.4-.733.048-1.171.1-2.343.185-3.506-.868-1.028-1.744-2.048-2.6-3.076-.016-.566-.056-1.713-.072-2.287,1.35-.231,2.725-.454,4.107-.638-.056-1.411-.1-2.813-.137-4.208-2.122-1.052-2.644-3.084-2.492-5.276,1.246-.135,2.524-.231,3.778-.47a32.894,32.894,0,0,0,1.125-10.081c-.169-1.594-1.768-2.407-2.717-3.5,1.391-1.865,3.689-3.323,3.874-5.818.418-2.462-.233-4.933-.466-7.38-1.045,0-2.082.008-3.1.024a23.347,23.347,0,0,1-2.532-8.806q3.159-.215,6.358-.223c-.257-1.857.145-4.08-1.205-5.586a19.846,19.846,0,0,0-3.448-1.02,33.333,33.333,0,0,1,.225-3.483,35.019,35.019,0,0,1,5.707-2.5c-.161-2.534-1.752-5.443.072-7.706m3.239,189.134c1.085-2.741.466-5.722.1-8.543a26.043,26.043,0,0,0-.1,8.543m136.646,3.22a34.845,34.845,0,0,0-.032,9.89,21.417,21.417,0,0,0,.032-9.89m50.548,91.925c-.506,1.044-.49,3.108.482,3.769.41-1.044.747-3.331-.482-3.769m-190.545,4.957h0m8.03,2.391h0m-47.445,3.706a17.961,17.961,0,0,0,2.251,3.985c.868-2.383,1.173-5.276-1.1-7.029a22.137,22.137,0,0,0-1.149,3.044m85.214-.98c-1.415,2.008-.924,4.495-1.021,6.79a9.078,9.078,0,0,1,2.612.215,14.858,14.858,0,0,0-.764-4.909c.089-.191.281-.566.37-.757-.3-.335-.892-1-1.2-1.339m-37.656,4.319c-.024,2.63,2.468-1.116,0,0m-8.921.8c.161,2.638,2.371-1.267,0,0M1243.9,651.43c.161,2.638,2.339-1.291,0,0m-2.042.773c-1.238,2.359,2.668.1,0,0m-89.112.924h0m175.241,7.89c-1.117.558-1.165,1.1-.137,1.618,1.077-.566,1.125-1.1.137-1.618M1458.219,771.6c-1.575,5.746-2.942,11.635-2.749,17.636.113,10.36.081,20.72.177,31.08.989-.032,2-.088,3.03-.175,1-1.227,1.535-2.805,2.572-4.04.587,1.6,1.31,3.212,3.11,3.746.257-9.412-.137-18.823-.1-28.227-.37-7.778-.675-15.779-3.938-23.007-.78.932-1.792,1.769-2.106,2.989m15.279,5.347a35.385,35.385,0,0,0-.627,4.016c.739,3-.474,6.041-.209,9.085.466,8.91.515,17.843.627,26.769,1.318.1,2.652.167,4.011.231.032-7.937-.072-15.883-.1-23.82a30.225,30.225,0,0,0-3.705-16.281m-30.832,13.038c.032,9.2.072,18.409.064,27.621a43.807,43.807,0,0,1,4.059,2.861c-.1-10.161.048-20.322-.161-30.474-.169-3.61.547-7.4-.892-10.83a21.014,21.014,0,0,0-3.07,10.822M212.359,889.567a10.412,10.412,0,0,0-2.138,6.447c2.058.008,4.123-.008,6.181-.024a53.1,53.1,0,0,0,.747-6.367c-1.6-.024-3.2-.032-4.79-.056M201.749,903.13c0,.534-.008,1.618-.008,2.16l-2.4.382c.273.749.53,1.522.78,2.3a19.548,19.548,0,0,0,3.922.04c.635-1.626,1.013-3.3.024-4.869-.579,0-1.736-.016-2.315-.016m7.748.614c.016.494.048,1.49.064,1.992-.426-.167-1.27-.494-1.7-.653-.145.566-.289,1.14-.442,1.721,1.632-.837,3.159.574,4.413,1.53.129-1.769.1-3.554.265-5.316-.86.263-1.728.5-2.6.725m6.157-.279a4.884,4.884,0,0,0-.056,4.144c1.037-.614,1.246-3.674.056-4.144m16.605.064c-.812.773.249,2.67,1.334,2,.788-.8-.233-2.694-1.334-2m4.895-.63c-.233,1.275-.458,2.558-.683,3.849a34.761,34.761,0,0,0,3.649.136q-.072-1.447-.193-2.845c-.587-.932-1.889-.693-2.773-1.14M102.261,957.512h0m11.349,3.953c-.3,1.331.169,1.785,1.415,1.363.3-1.355-.169-1.809-1.415-1.363m-109,5.22c-1.238,1.3.024,2.957.338,4.391,1.551-.1,3.111-.159,4.662-.215.305-2.16.354-4.487,1.728-6.3-.53-.566-1.053-1.124-1.616-1.626a11.218,11.218,0,0,0-5.112,3.745m722.049,91.375c-1.238,2.383,2.652.112,0,0m-2.355,1.052c-.731.948-.547,1.506.555,1.682.7-.972.514-1.53-.555-1.682m7.322-.183c-.675.558-.764,2.534.386,2.518C732.666,1060.858,732.755,1058.905,731.629,1058.929Z" transform="translate(0 -342.63)" fill="#1d2438" opacity="0.074"/></svg>