<svg xmlns="http://www.w3.org/2000/svg" width="28.896" height="30.677" viewBox="0 0 28.896 30.677"><path d="M30.547,14.159a15.273,15.273,0,0,1-.53,3.431A9.749,9.749,0,0,1,28.631,20.6a7.205,7.205,0,0,1-2.35,2.141,6.835,6.835,0,0,1-3.431.815,5.128,5.128,0,0,1-2.481-.585,4.168,4.168,0,0,1-1.677-1.654,5.384,5.384,0,0,1-4.5,2.174,4.776,4.776,0,0,1-2.242-.527,4.605,4.605,0,0,1-1.683-1.5A6.511,6.511,0,0,1,9.3,19.108a9.78,9.78,0,0,1-.127-3.071,13.834,13.834,0,0,1,.972-3.761,10.156,10.156,0,0,1,1.8-2.881,7.57,7.57,0,0,1,2.469-1.836,7.114,7.114,0,0,1,3-.642,9.689,9.689,0,0,1,1.8.148,7.566,7.566,0,0,1,1.394.4,7.642,7.642,0,0,1,1.155.587c.352.219.707.445,1.059.675l-.872,9.661a3.094,3.094,0,0,0,.026,1.131,1.561,1.561,0,0,0,.358.7,1.3,1.3,0,0,0,.581.364,2.224,2.224,0,0,0,2.043-.387,4.222,4.222,0,0,0,1.1-1.342,8.432,8.432,0,0,0,.737-2.017,13.347,13.347,0,0,0,.323-2.511,15.47,15.47,0,0,0-.41-4.693A9.186,9.186,0,0,0,24.889,6a8.356,8.356,0,0,0-3.234-2.339,12.138,12.138,0,0,0-4.711-.83,10.741,10.741,0,0,0-4.66.978,10.634,10.634,0,0,0-3.54,2.711A12.871,12.871,0,0,0,6.427,10.6a17.766,17.766,0,0,0-.976,5.08,16.287,16.287,0,0,0,.5,5.183,9.241,9.241,0,0,0,1.967,3.715,8.221,8.221,0,0,0,3.333,2.231,13.233,13.233,0,0,0,4.6.74,16.342,16.342,0,0,0,3.019-.312c.5-.1.97-.211,1.42-.337a10.961,10.961,0,0,0,1.223-.422l.631,2.734a7.12,7.12,0,0,1-1.368.652,13.562,13.562,0,0,1-1.617.45,16.362,16.362,0,0,1-3.377.364,18.334,18.334,0,0,1-6.157-.955,11.376,11.376,0,0,1-4.488-2.841A11.815,11.815,0,0,1,2.44,22.191a19.3,19.3,0,0,1-.753-6.512A19.215,19.215,0,0,1,2.982,9.429,15.371,15.371,0,0,1,6.1,4.465a14.211,14.211,0,0,1,4.757-3.276A15.392,15.392,0,0,1,17.018,0a16.084,16.084,0,0,1,5.97,1.029A11.624,11.624,0,0,1,27.3,3.924,11.76,11.76,0,0,1,29.854,8.4,16.5,16.5,0,0,1,30.547,14.159Zm-17.1,1.879a6.3,6.3,0,0,0,.35,3.234,1.8,1.8,0,0,0,1.732,1.093,1.98,1.98,0,0,0,.593-.105,2.135,2.135,0,0,0,.683-.395,3.544,3.544,0,0,0,.693-.805,6.071,6.071,0,0,0,.637-1.361l.681-7.507a4.217,4.217,0,0,0-1.059-.134,3.779,3.779,0,0,0-1.762.389,3.436,3.436,0,0,0-1.249,1.143,6.578,6.578,0,0,0-.828,1.879,15.4,15.4,0,0,0-.47,2.569Z" transform="translate(-1.67)" fill="#fff"/></svg>