<svg xmlns="http://www.w3.org/2000/svg" width="31.86" height="30.671" viewBox="0 0 31.86 30.671"><path d="M15.93,0C11.6,0,11.062.019,9.363.092A12.145,12.145,0,0,0,5.5.805,7.838,7.838,0,0,0,2.674,2.574,7.46,7.46,0,0,0,.836,5.291,10.909,10.909,0,0,0,.1,9.013c-.08,1.636-.1,2.156-.1,6.322s.02,4.686.1,6.322A10.947,10.947,0,0,0,.836,25.38,7.5,7.5,0,0,0,2.674,28.1,7.827,7.827,0,0,0,5.5,29.866a12.16,12.16,0,0,0,3.867.713c1.7.077,2.239.092,6.567.092s4.868-.019,6.567-.092a12.188,12.188,0,0,0,3.867-.713A7.867,7.867,0,0,0,29.186,28.1a7.466,7.466,0,0,0,1.837-2.717,10.947,10.947,0,0,0,.741-3.723c.08-1.636.1-2.156.1-6.322s-.02-4.686-.1-6.322a10.973,10.973,0,0,0-.741-3.723,7.5,7.5,0,0,0-1.837-2.717A7.8,7.8,0,0,0,26.364.805,12.117,12.117,0,0,0,22.5.092C20.8.015,20.258,0,15.93,0Zm0,2.76c4.252,0,4.759.02,6.438.091a9.074,9.074,0,0,1,2.956.53,4.971,4.971,0,0,1,1.835,1.145,4.724,4.724,0,0,1,1.189,1.765A8.192,8.192,0,0,1,28.9,9.137c.076,1.618.093,2.1.093,6.2s-.02,4.581-.1,6.2a8.351,8.351,0,0,1-.559,2.846,4.856,4.856,0,0,1-1.193,1.766,4.993,4.993,0,0,1-1.832,1.145,9.16,9.16,0,0,1-2.967.528c-1.691.073-2.189.089-6.45.089s-4.76-.019-6.45-.095a9.338,9.338,0,0,1-2.968-.538,4.955,4.955,0,0,1-1.831-1.149,4.644,4.644,0,0,1-1.195-1.764,8.422,8.422,0,0,1-.558-2.856c-.06-1.61-.081-2.107-.081-6.19s.021-4.583.081-6.212a8.412,8.412,0,0,1,.558-2.855A4.534,4.534,0,0,1,4.641,4.484,4.733,4.733,0,0,1,6.472,3.337,9.114,9.114,0,0,1,9.42,2.8c1.693-.058,2.19-.077,6.45-.077l.06.038Zm0,4.7a8.031,8.031,0,0,0-8.18,7.875,8.031,8.031,0,0,0,8.18,7.875,8.031,8.031,0,0,0,8.18-7.875A8.031,8.031,0,0,0,15.93,7.461Zm0,12.987a5.212,5.212,0,0,1-5.31-5.112,5.212,5.212,0,0,1,5.31-5.112,5.212,5.212,0,0,1,5.31,5.112A5.212,5.212,0,0,1,15.93,20.447ZM26.346,7.15a1.913,1.913,0,0,1-3.823,0,1.913,1.913,0,0,1,3.823,0Z" fill="#fff"/></svg>