<svg xmlns="http://www.w3.org/2000/svg" width="42.839" height="41.24" viewBox="0 0 42.839 41.24"><path d="M21.419,0c-5.819,0-6.545.026-8.83.124a16.33,16.33,0,0,0-5.2.959A10.539,10.539,0,0,0,3.595,3.461a10.031,10.031,0,0,0-2.47,3.653,14.668,14.668,0,0,0-1,5.006c-.107,2.2-.129,2.9-.129,8.5s.027,6.3.129,8.5a14.72,14.72,0,0,0,1,5.006,10.082,10.082,0,0,0,2.47,3.653A10.524,10.524,0,0,0,7.39,40.158a16.351,16.351,0,0,0,5.2.959c2.285.1,3.011.124,8.83.124s6.545-.026,8.83-.124a16.388,16.388,0,0,0,5.2-.959,10.578,10.578,0,0,0,3.795-2.378,10.039,10.039,0,0,0,2.47-3.653,14.72,14.72,0,0,0,1-5.006c.107-2.2.129-2.9.129-8.5s-.027-6.3-.129-8.5a14.754,14.754,0,0,0-1-5.006,10.09,10.09,0,0,0-2.47-3.653,10.486,10.486,0,0,0-3.795-2.378,16.293,16.293,0,0,0-5.2-.959C27.965.021,27.238,0,21.419,0Zm0,3.712c5.717,0,6.4.027,8.657.122a12.2,12.2,0,0,1,3.975.713,6.684,6.684,0,0,1,2.467,1.54,6.352,6.352,0,0,1,1.6,2.373,11.016,11.016,0,0,1,.737,3.827c.1,2.175.125,2.828.125,8.334s-.027,6.16-.132,8.334a11.229,11.229,0,0,1-.751,3.827,6.529,6.529,0,0,1-1.6,2.375,6.714,6.714,0,0,1-2.463,1.54,12.317,12.317,0,0,1-3.989.71c-2.274.1-2.943.12-8.673.12s-6.4-.026-8.673-.127A12.556,12.556,0,0,1,8.7,36.674,6.663,6.663,0,0,1,6.24,35.13a6.244,6.244,0,0,1-1.606-2.371,11.324,11.324,0,0,1-.75-3.84c-.08-2.165-.109-2.834-.109-8.324s.029-6.162.109-8.353A11.311,11.311,0,0,1,4.634,8.4,6.1,6.1,0,0,1,6.24,6.03,6.364,6.364,0,0,1,8.7,4.487a12.255,12.255,0,0,1,3.964-.723c2.276-.077,2.945-.1,8.673-.1l.08.052Zm0,6.32a10.8,10.8,0,0,0-11,10.588,10.8,10.8,0,0,0,11,10.588,10.8,10.8,0,0,0,11-10.588A10.8,10.8,0,0,0,21.419,10.032Zm0,17.462a7.008,7.008,0,0,1-7.14-6.873,7.008,7.008,0,0,1,7.14-6.873,7.008,7.008,0,0,1,7.14,6.873A7.008,7.008,0,0,1,21.419,27.493Zm14-17.879a2.572,2.572,0,0,1-5.141,0,2.572,2.572,0,0,1,5.141,0Z" fill="#1d2438"/></svg>