<svg xmlns="http://www.w3.org/2000/svg" xmlns:xlink="http://www.w3.org/1999/xlink" width="41.736" height="47.141" viewBox="0 0 41.736 47.141"><defs><linearGradient id="a" x1="4.775" y1="30.574" x2="4.955" y2="26.666" gradientUnits="objectBoundingBox"><stop offset="0" stop-color="#c48800"/><stop offset="1" stop-color="#c48800" stop-opacity="0"/></linearGradient><linearGradient id="b" x1="0.098" y1="0.527" x2="1" y2="0.531" gradientUnits="objectBoundingBox"><stop offset="0"/><stop offset="1" stop-color="#ffc405"/></linearGradient></defs><g transform="translate(-23.226 -7.135)"><path d="M38.85,31.016c-.033-.794.993-13.819.993-13.819S41,5.709,53.815,8.462c10.7,2.3,10.672,10.96,10.672,10.96l1.261,16.042-5.153-1.112-.382-13.819s.332-5.4-6.564-6.671C45.969,12.447,46,18.786,46,18.786L45.115,30.54l-6.265.476Z" transform="translate(-7.423 0)" fill="#1d2438" stroke="#000" stroke-width="1.773" fill-rule="evenodd"/><path d="M24.112,72.963l3.056-24.485,6.111-3.369,27.776,5.84L63.308,66.68l.8,5.609L59.388,75.66l-35.276-2.7Z" transform="translate(0 -22.194)" fill="#1d2438" stroke="#000" stroke-width="1.579" fill-rule="evenodd"/><path d="M26.6,73.984,29.38,50.736l5.139-2.808-.972,21.79Z" transform="translate(-1.255 -23.882)" fill="#707070" fill-rule="evenodd"/><path d="M26.325,106.537l7.083-4.327,30.5,3.981-3.889,2.866-33.692-2.52Z" transform="translate(-1.115 -56.377)" fill-rule="evenodd" fill="url(#a)"/><path d="M75.69,78.948l1.865,13.1L52.514,88.794" transform="translate(-14.306 -42.452)" fill="none" stroke="#707070" stroke-width="0.859"/><path d="M42.712,48.277l-.884,17.789c9.035-6.512,24.355,1.747,28.087-5.8l-.884-6.751L42.712,48.277Z" transform="translate(-8.924 -24.09)" fill="#707070" fill-rule="evenodd"/><g transform="translate(46.326 33.228)"><path d="M258.8,92.046a2.12,2.12,0,0,0-2.016,2.008,2.18,2.18,0,0,0,1.569,2.307v4.531h.971V99.433h-.623V98.14h.554V96.378a2.211,2.211,0,0,0-.245-4.326Q258.909,92.044,258.8,92.046Z" transform="translate(-256.782 -92.044)"/><path d="M259.942,92.043a1.968,1.968,0,0,0-.9.243c.023,0,.047,0,.069,0a1.662,1.662,0,0,1,.21.007,2.211,2.211,0,0,1,.246,4.326v1.761H259.5v1.292h.137v1.22h.833V99.43h-.623V98.137h.554V96.376a2.211,2.211,0,0,0-.245-4.326c-.071-.006-.142-.008-.212-.007Z" transform="translate(-257.919 -92.043)" fill="url(#b)"/></g><path d="M74.258,71.873a2.325,2.325,0,0,1-.834,3.931v1.747l-.455.02" transform="translate(-24.61 -38.216)" fill="none" stroke="#fff" stroke-linecap="round" stroke-width="0.554"/><path d="M73.064,89.287l.022,1.429-.933-.019" transform="translate(-24.199 -48.641)" fill="none" stroke="#fff" stroke-linecap="round" stroke-width="0.554"/></g></svg>