<svg xmlns="http://www.w3.org/2000/svg" width="38.854" height="41.248" viewBox="0 0 38.854 41.248"><path d="M40.5,19.038a20.536,20.536,0,0,1-.712,4.614A13.109,13.109,0,0,1,37.922,27.7a9.688,9.688,0,0,1-3.159,2.879,9.191,9.191,0,0,1-4.613,1.1,6.9,6.9,0,0,1-3.336-.786,5.6,5.6,0,0,1-2.254-2.224,7.239,7.239,0,0,1-6.046,2.923,6.421,6.421,0,0,1-3.015-.709,6.192,6.192,0,0,1-2.262-2.023,8.755,8.755,0,0,1-1.312-3.165,13.15,13.15,0,0,1-.171-4.129,18.6,18.6,0,0,1,1.307-5.057,13.656,13.656,0,0,1,2.415-3.874,10.179,10.179,0,0,1,3.32-2.469A9.565,9.565,0,0,1,22.832,9.3a13.028,13.028,0,0,1,2.415.2,10.173,10.173,0,0,1,1.874.541,10.276,10.276,0,0,1,1.553.789c.474.294.95.6,1.424.907L28.926,24.726a4.16,4.16,0,0,0,.035,1.521,2.1,2.1,0,0,0,.482.938,1.743,1.743,0,0,0,.782.49,2.99,2.99,0,0,0,2.747-.521,5.677,5.677,0,0,0,1.473-1.8,11.337,11.337,0,0,0,.991-2.712,17.946,17.946,0,0,0,.434-3.377,20.8,20.8,0,0,0-.552-6.31A12.351,12.351,0,0,0,32.891,8.07a11.236,11.236,0,0,0-4.348-3.145A16.32,16.32,0,0,0,22.208,3.81a14.442,14.442,0,0,0-6.265,1.315,14.3,14.3,0,0,0-4.76,3.645,17.306,17.306,0,0,0-3.117,5.482,23.887,23.887,0,0,0-1.312,6.83,21.9,21.9,0,0,0,.669,6.97,12.426,12.426,0,0,0,2.645,5,11.054,11.054,0,0,0,4.482,3,17.793,17.793,0,0,0,6.185.995,21.973,21.973,0,0,0,4.059-.42c.669-.129,1.3-.284,1.909-.454a14.738,14.738,0,0,0,1.644-.567l.849,3.676a9.574,9.574,0,0,1-1.839.876,18.235,18.235,0,0,1-2.174.606,22,22,0,0,1-4.541.49,24.651,24.651,0,0,1-8.279-1.284,15.3,15.3,0,0,1-6.035-3.82,15.887,15.887,0,0,1-3.623-6.307,25.953,25.953,0,0,1-1.012-8.756,25.837,25.837,0,0,1,1.74-8.4A20.667,20.667,0,0,1,7.627,6a19.108,19.108,0,0,1,6.4-4.4A20.7,20.7,0,0,1,22.307,0a21.627,21.627,0,0,1,8.027,1.384,15.629,15.629,0,0,1,5.794,3.892,15.812,15.812,0,0,1,3.438,6.013A22.184,22.184,0,0,1,40.5,19.038ZM17.5,21.564a8.465,8.465,0,0,0,.471,4.348A2.427,2.427,0,0,0,20.3,27.381a2.662,2.662,0,0,0,.8-.142,2.87,2.87,0,0,0,.918-.531,4.766,4.766,0,0,0,.932-1.083,8.163,8.163,0,0,0,.857-1.83L24.725,13.7a5.67,5.67,0,0,0-1.424-.18,5.081,5.081,0,0,0-2.37.523,4.62,4.62,0,0,0-1.679,1.536,8.845,8.845,0,0,0-1.114,2.526,20.705,20.705,0,0,0-.632,3.454Z" transform="translate(-1.67)" fill="#1d2438"/></svg>