<svg xmlns="http://www.w3.org/2000/svg" xmlns:xlink="http://www.w3.org/1999/xlink" width="160.531" height="152.002" viewBox="0 0 160.531 152.002"><defs><radialGradient id="a" cx="0.5" cy="0.5" r="0.5" gradientUnits="objectBoundingBox"><stop offset="0" stop-color="#4db2ce"/><stop offset="1" stop-color="#2a5786"/></radialGradient></defs><g transform="translate(-9 -595)"><g transform="translate(9 595)"><path d="M537.521-1846.466l-.382.7,2.96,3.835s-7.308-3.51-11.445-5.192a32.171,32.171,0,0,0-6.661-2.052c1.217-.708,9.646-1.738,13.968-.968C538.385-1849.713,539.136-1849.424,537.521-1846.466Zm-26.582-51.063a77.7,77.7,0,0,0-39.488,10.61c8.506-2.53,16.2-2.7,22.288-1.367a24.468,24.468,0,0,1,10.577,5.408c-1.295-5.507-5.824-8.033-7.921-9.9a22.147,22.147,0,0,1,4.35.785c6.081,1.709,10.1,4.639,12.451,10.357,4.5-4.123,8.647-5.074,14.732-3.023,0,0-1.328.643-2.961,1.616-5.482,3.265-6.244,9.51-5.476,15.885,0,0-8.89-7.987-17.459-10.74a21.156,21.156,0,0,0-4.874-.915l.031.025a15.31,15.31,0,0,0-4.2.194,29.594,29.594,0,0,0-9.65,4.13c-13.439,8.993-15.311,17.29-4.735,21.973-9.065,7.565-10.946,13.382-11.67,21.824,4.3-9.141,10.937-18.084,21.259-19.053h0a30.54,30.54,0,0,1,6.051-.573s-11.3-3.463-14.632-6.729-3.128-5.838.4-9.7c12.455-13.61,19.619-10.836,32.917-1.142,0,0-2.727-.995-5.493-1.7-2.685-.685-8.114-1.844-12.187-.655-4.541,1.326-7.161,5.431-6.483,8.316.722,3.071,4.979,4.935,7.753,6.527,4.685,2.686,4.577,5.269,2.565,10.919a49.075,49.075,0,0,0-2.523,12.469s4.238-10.292,9.182-14.15a68.934,68.934,0,0,1,9.284-6.136c-3.367-1.909-5.634-3.672-6.761-6.532a27.447,27.447,0,0,1,3.154-.23c5.33,0,6.738-2.1,10.847-4.163a10.293,10.293,0,0,1,6.28-.947c1.626.279,7.265,2.894,10,4.87,0,0-4.882-5.628-8.707-7.9s-8.707-4.64-8.707-4.64a8.434,8.434,0,0,1,3.624-5.972c3.322-2.123,8.154-1.48,8.154-1.48s-5.184,1.875-5.587,3.8a4.043,4.043,0,0,0,.352,3.011s.1-1.085,3.775-1.283,8.3,2.517,8.3,2.517l-4.479,1.086s-3.272.543.05,3.307,9.613,7.058,10.77,8.835,1.523,7.6,1.523,7.6,11.4,6.333,18.063,12.271,7.366,8.015,7.366,8.015-4.336-.734-6.735.433a10.514,10.514,0,0,1-7.831-.025,18.407,18.407,0,0,1-2.931-1.638s-1.4,3.534,1.266,4.916,4.883.858,6.241,3.178c1.2,2.043,2.275,5.531,1.308,7.858a9.948,9.948,0,0,0,3.153-7.786c.028-.393,1.211-1.3,2.267-1.854a6.292,6.292,0,0,1,1.539-.564s-.524,1.695-1.145,3.375c-1.546,4.181-2.9,7.786-8.138,9.609a23.6,23.6,0,0,1-13.816,6.15c-11.6.99-12.21-4.75-11.807-8.312s5.852-7.521,5.852-7.521c-1.441.164-3.46.453-5.743.6-6.525.412-14.254-.8-17.767-6.64-.289-.479-.506-.919-.506-.919-2.112,3.495-2.076,9.256-.2,12.917-6.931.916-13.686.018-16.048-9.436a30.735,30.735,0,0,0-3.56,9.942c-1.339,8.408,2.675,12.585,8.087,16.751,5.492,4.229,12.138,8.241,14.571,14.786a20.624,20.624,0,0,1,1.146,7.676c6.439-4.979,9.847-12.027,7.994-19.643-.079-.322-.128-.515-.128-.515a16.5,16.5,0,0,1,2.265,2.92c7.112,11.525,3.178,23.9-8.706,31.23a74.252,74.252,0,0,0,15.428-4.278c26.638-10.209,45.379-34.453,45.379-62.732C584.49-1867.123,551.553-1897.529,510.939-1897.529Zm37.193,100.774c-3.689-.274-1.71-2.891-.217-4.273,3.694-3.416,12.057-7.857,14.773-7.857-.276,1.23-1.151,1.461-.129,3.216s2.567,3.109,2.164,5.529-4.132,7.5-4.132,7.5a6.14,6.14,0,0,0-5.22-4.288c-2.493-.3-4.85.35-7.239.172" transform="translate(-428.696 1906.075)" fill="#fff" fill-rule="evenodd"/><path d="M569.895-966.1c2.588-18-2.963-22.453-10.952-31.165-8.587-9.362-14.691-23.306-3.211-37.239-7.022,16.407,9.212,27.287,18.2,38.3,7.206,8.825,10.435,20.845-4.039,30.106" transform="translate(-504.433 1108.297)" fill-rule="evenodd" fill="url(#a)"/><path d="M82.326-2010.569c45.46,0,78.2,37.323,78.2,79.291,0,15.528-7.023,28.174-14.954,39.611-13.558,19.552-34.61,33.1-63.25,33.1-45.46,0-82.326-34.033-82.326-76S36.867-2010.569,82.326-2010.569Zm-62.9,118.9a34.4,34.4,0,0,1,1.447-6.692,60.038,60.038,0,0,1,3.1-7.815,80.391,80.391,0,0,1,5.041-9.05c.844-1.311,1.728-2.6,2.661-3.86.806-1.087,1.65-2.157,2.549-3.18l.831-.946-.288,1.188c-.219.9-.417,1.81-.606,2.717-3.41,16.371-2.4,34.779,10.146,47.836a82.973,82.973,0,0,0,38.014,9.1c43.184,0,78.2-32.329,78.2-72.2s-35.02-72.2-78.2-72.2a83.618,83.618,0,0,0-30.433,5.674,79.069,79.069,0,0,0-24.855,15.472q-.776.717-1.529,1.452c5.233-1.045,10.7-.9,16.022-.842l1.987.021-1.9.538c-2.436.688-4.853,1.438-7.225,2.3-13.161,4.767-21.763,12.16-26.327,24.888a38.12,38.12,0,0,1,9.815-6.73,52.916,52.916,0,0,1,10.929-3.94,45.315,45.315,0,0,1,5.251-.956,31.223,31.223,0,0,1,4.716-.231l1.122.037-.984.5c-7.449,3.778-14.762,8-20.939,13.435-9.8,8.626-14.932,17.858-13.17,30.144a52.052,52.052,0,0,1,13.823-12.862,39.775,39.775,0,0,1,5.987-3.009c1.544-.619,3.106-1.127,4.707-1.6l1.271-.377-.962.855a50.034,50.034,0,0,0-6.863,7.518,51.387,51.387,0,0,0-5.694,9.687c-5.535,12.375-6.167,22.5,2.353,33.128" transform="translate(0 2010.569)" fill="#5fb8fc" fill-rule="evenodd"/></g></g></svg>