<svg xmlns="http://www.w3.org/2000/svg" width="25.894" height="24.928" viewBox="0 0 25.894 24.928"><path d="M12.947,0C9.43,0,8.991.016,7.61.075a9.871,9.871,0,0,0-3.143.58A6.371,6.371,0,0,0,2.173,2.092,6.063,6.063,0,0,0,.68,4.3a8.866,8.866,0,0,0-.6,3.026C.013,8.655,0,9.078,0,12.464S.016,16.273.078,17.6a8.9,8.9,0,0,0,.6,3.026,6.094,6.094,0,0,0,1.493,2.208,6.361,6.361,0,0,0,2.294,1.438,9.883,9.883,0,0,0,3.143.58c1.381.062,1.82.075,5.337.075s3.956-.016,5.337-.075a9.906,9.906,0,0,0,3.143-.58,6.394,6.394,0,0,0,2.294-1.438,6.068,6.068,0,0,0,1.493-2.208,8.9,8.9,0,0,0,.6-3.026c.065-1.329.078-1.752.078-5.138s-.016-3.809-.078-5.138a8.918,8.918,0,0,0-.6-3.026,6.1,6.1,0,0,0-1.493-2.208A6.338,6.338,0,0,0,21.427.654a9.848,9.848,0,0,0-3.143-.58C16.9.012,16.464,0,12.947,0Zm0,2.244c3.456,0,3.868.017,5.233.074a7.375,7.375,0,0,1,2.4.431,4.04,4.04,0,0,1,1.491.931,3.839,3.839,0,0,1,.967,1.434,6.658,6.658,0,0,1,.446,2.313c.061,1.315.076,1.71.076,5.038s-.016,3.724-.08,5.038a6.788,6.788,0,0,1-.454,2.313,3.946,3.946,0,0,1-.97,1.435,4.058,4.058,0,0,1-1.489.931,7.445,7.445,0,0,1-2.411.429c-1.375.059-1.779.073-5.242.073s-3.869-.016-5.242-.077a7.589,7.589,0,0,1-2.412-.437,4.027,4.027,0,0,1-1.488-.934A3.774,3.774,0,0,1,2.8,19.8a6.845,6.845,0,0,1-.453-2.321c-.049-1.309-.066-1.713-.066-5.031S2.3,8.724,2.348,7.4A6.837,6.837,0,0,1,2.8,5.079a3.685,3.685,0,0,1,.971-1.434A3.847,3.847,0,0,1,5.26,2.712a7.407,7.407,0,0,1,2.4-.437c1.376-.047,1.78-.062,5.242-.062l.049.031Zm0,3.82a6.527,6.527,0,0,0-6.648,6.4,6.527,6.527,0,0,0,6.648,6.4,6.527,6.527,0,0,0,6.648-6.4A6.527,6.527,0,0,0,12.947,6.064Zm0,10.555a4.236,4.236,0,0,1-4.316-4.155,4.236,4.236,0,0,1,4.316-4.155,4.236,4.236,0,0,1,4.316,4.155A4.236,4.236,0,0,1,12.947,16.619ZM21.412,5.811a1.555,1.555,0,0,1-3.107,0,1.555,1.555,0,0,1,3.107,0Z" fill="#4477b4"/></svg>