<svg xmlns="http://www.w3.org/2000/svg" xmlns:xlink="http://www.w3.org/1999/xlink" width="29.823" height="37.555" viewBox="0 0 29.823 37.555"><defs><radialGradient id="a" cx="0.5" cy="0.5" r="0.5" gradientUnits="objectBoundingBox"><stop offset="0" stop-color="#4db2ce"/><stop offset="1" stop-color="#2a5786"/></radialGradient></defs><g transform="translate(-43.671 -722.535)"><g transform="translate(43.671 722.535)"><path d="M486.689-1881.876l-.107.2.828,1.073s-2.045-.982-3.2-1.453a9.014,9.014,0,0,0-1.864-.574,10.644,10.644,0,0,1,3.909-.271C486.931-1882.785,487.141-1882.7,486.689-1881.876ZM468.2-1893.2a12.662,12.662,0,0,1,6.238-.383,6.853,6.853,0,0,1,2.96,1.514,5.231,5.231,0,0,0-2.217-2.771,6.216,6.216,0,0,1,1.217.219,4.766,4.766,0,0,1,3.485,2.9,3.647,3.647,0,0,1,4.123-.846s-.372.18-.829.452c-1.534.914-1.747,2.661-1.533,4.446a16.551,16.551,0,0,0-4.886-3.006,5.9,5.9,0,0,0-1.364-.256l.009.007a4.293,4.293,0,0,0-1.175.054,8.281,8.281,0,0,0-2.7,1.156c-3.761,2.517-4.285,4.839-1.325,6.149a7.7,7.7,0,0,0-3.266,6.108c1.2-2.558,3.061-5.061,5.949-5.332h0a8.54,8.54,0,0,1,1.693-.16s-3.163-.969-4.095-1.883-.875-1.634.113-2.714c3.486-3.809,5.491-3.033,9.212-.32,0,0-.763-.278-1.537-.475a7.2,7.2,0,0,0-3.411-.183,2.279,2.279,0,0,0-1.814,2.327c.2.86,1.393,1.381,2.17,1.827,1.311.751,1.281,1.475.718,3.056a13.734,13.734,0,0,0-.706,3.49s1.186-2.88,2.57-3.96a19.3,19.3,0,0,1,2.6-1.717,3.778,3.778,0,0,1-1.892-1.828,7.651,7.651,0,0,1,.883-.065c1.492,0,1.886-.588,3.036-1.165a2.88,2.88,0,0,1,1.758-.265,10.992,10.992,0,0,1,2.8,1.363,13.431,13.431,0,0,0-2.437-2.21c-1.07-.635-2.437-1.3-2.437-1.3a2.361,2.361,0,0,1,1.014-1.671,3.916,3.916,0,0,1,2.282-.414s-1.451.525-1.564,1.063a1.131,1.131,0,0,0,.1.843s.028-.3,1.057-.359a5.175,5.175,0,0,1,2.324.7l-1.254.3s-.916.152.014.926a29.263,29.263,0,0,1,3.014,2.472,6.916,6.916,0,0,1,.426,2.126,52.629,52.629,0,0,1,5.232,3.817c1.864,1.662,1.885,1.86,1.885,1.86a3.95,3.95,0,0,0-1.885.121,2.941,2.941,0,0,1-2.192-.007,5.132,5.132,0,0,1-.82-.458s-.392.989.354,1.375,1.367.24,1.747.889a2.83,2.83,0,0,1,.366,2.2,2.783,2.783,0,0,0,.883-2.179c.008-.11.339-.364.634-.519a1.756,1.756,0,0,1,.431-.158s-.147.474-.321.944c-.433,1.17-.812,2.179-2.278,2.69a6.606,6.606,0,0,1-3.867,1.721c-3.248.277-3.417-1.329-3.3-2.326s1.638-2.1,1.638-2.1c-.4.046-.968.127-1.607.167-1.826.115-3.989-.224-4.972-1.858-.081-.134-.142-.257-.142-.257a4.109,4.109,0,0,0-.055,3.615c-1.94.256-3.83.005-4.491-2.641a8.6,8.6,0,0,0-1,2.782c-.375,2.353.749,3.522,2.263,4.688,1.537,1.184,3.4,2.306,4.078,4.138a5.775,5.775,0,0,1,.321,2.148,5.289,5.289,0,0,0,2.237-5.5c-.022-.09-.036-.144-.036-.144a4.616,4.616,0,0,1,.634.817c1.99,3.225.89,6.687-2.436,8.74a20.8,20.8,0,0,0,4.318-1.2c7.455-2.857,9.5-9.775,9.5-17.689,0-.516-.094-.142,0,.24.032.059.263.12,0-.126-.074-.07.19.052,0-.114-1.178-1.046-2.518-1.593-4.542-4.016a25.047,25.047,0,0,0-2.4-1.662c-.071-.045.624-.306.484-.526a29.564,29.564,0,0,1-2.15-3.322c-.112-.207-1.415-3.082-1.607-3.427C484.705-1893.308,471.392-1895.077,468.2-1893.2Zm21.46,25.233c-1.032-.077-.478-.809-.061-1.2a10.225,10.225,0,0,1,4.135-2.2c-.077.344-.322.409-.036.9s.718.87.606,1.547a8.109,8.109,0,0,1-1.156,2.1,1.719,1.719,0,0,0-1.461-1.2c-.7-.083-1.357.1-2.026.049" transform="translate(-466.935 1894.837)" fill="#fff" fill-rule="evenodd"/><path d="M555.156-1015.362c.724-5.036-.829-6.284-3.065-8.722-2.4-2.62-4.111-6.522-.9-10.422-1.965,4.592,2.578,7.637,5.094,10.718,2.017,2.47,2.921,5.834-1.13,8.426" transform="translate(-548.525 1052.917)" fill-rule="evenodd" fill="url(#a)"/></g></g></svg>