<svg xmlns="http://www.w3.org/2000/svg" width="22.036" height="24.928" viewBox="0 0 22.036 24.928"><path d="M20.376,0a1.091,1.091,0,0,0-1,.686s-8.043,13.735-8.31,14.185c.016.025,5.307,9.372,5.307,9.372a1.162,1.162,0,0,0,1.043.686h3.727a.564.564,0,0,0,.5-.229.55.55,0,0,0-.01-.557l-5.264-9.261a.022.022,0,0,1,0-.023L24.639.785A.55.55,0,0,0,24.646.23a.559.559,0,0,0-.5-.23ZM4.689,4.923a.582.582,0,0,0-.51.224A.541.541,0,0,0,4.2,5.7L6.725,9.906c0,.01,0,.017,0,.022L2.76,16.672a.523.523,0,0,0,0,.549.543.543,0,0,0,.486.243H6.979A1.142,1.142,0,0,0,8,16.771l4.029-6.864L9.462,5.591a1.148,1.148,0,0,0-1.038-.684H4.689v.017Z" transform="translate(-2.682)" fill="#4477b4"/></svg>