<svg xmlns="http://www.w3.org/2000/svg" xmlns:xlink="http://www.w3.org/1999/xlink" width="46.349" height="58.366" viewBox="0 0 46.349 58.366"><defs><radialGradient id="a" cx="0.5" cy="0.5" r="0.5" gradientUnits="objectBoundingBox"><stop offset="0" stop-color="#4db2ce"/><stop offset="1" stop-color="#2a5786"/></radialGradient></defs><g transform="translate(-43.671 -722.535)"><g transform="translate(43.671 722.535)"><path d="M497.636-1874.693l-.166.3,1.288,1.668s-3.178-1.526-4.978-2.258a13.985,13.985,0,0,0-2.9-.893,16.53,16.53,0,0,1,6.075-.421C498.012-1876.106,498.338-1875.98,497.636-1874.693ZM468.9-1892.288a19.674,19.674,0,0,1,9.694-.594,10.643,10.643,0,0,1,4.6,2.352c-.563-2.4-2.533-3.494-3.445-4.306a9.617,9.617,0,0,1,1.892.342,7.4,7.4,0,0,1,5.416,4.5,5.669,5.669,0,0,1,6.408-1.315s-.578.28-1.288.7c-2.384,1.42-2.716,4.136-2.382,6.909,0,0-3.867-3.474-7.594-4.671a9.2,9.2,0,0,0-2.12-.4l.013.011a6.656,6.656,0,0,0-1.826.085,12.868,12.868,0,0,0-4.2,1.8c-5.845,3.912-6.66,7.52-2.059,9.557-3.943,3.291-4.761,5.82-5.076,9.492,1.869-3.976,4.757-7.866,9.246-8.287h0a13.27,13.27,0,0,1,2.632-.249s-4.916-1.507-6.364-2.927-1.361-2.54.176-4.218c5.417-5.92,8.533-4.713,14.317-.5,0,0-1.186-.433-2.389-.739a11.194,11.194,0,0,0-5.3-.285c-1.975.577-3.115,2.362-2.82,3.617.314,1.336,2.166,2.147,3.372,2.839,2.038,1.168,1.991,2.292,1.116,4.749a21.346,21.346,0,0,0-1.1,5.423s1.843-4.476,3.994-6.155a29.988,29.988,0,0,1,4.038-2.669,5.871,5.871,0,0,1-2.941-2.841,11.915,11.915,0,0,1,1.372-.1c2.318,0,2.931-.915,4.718-1.811a4.478,4.478,0,0,1,2.731-.412,17.1,17.1,0,0,1,4.35,2.119,20.888,20.888,0,0,0-3.787-3.435c-1.664-.987-3.787-2.018-3.787-2.018a3.668,3.668,0,0,1,1.576-2.6,6.084,6.084,0,0,1,3.546-.644s-2.255.815-2.43,1.653a1.758,1.758,0,0,0,.153,1.31s.044-.472,1.642-.558a8.044,8.044,0,0,1,3.612,1.095l-1.948.472s-1.423.236.022,1.438,4.181,3.07,4.685,3.843a10.748,10.748,0,0,1,.662,3.3,81.835,81.835,0,0,1,8.131,5.933c2.9,2.582,2.929,2.891,2.929,2.891a6.14,6.14,0,0,0-2.929.188,4.572,4.572,0,0,1-3.406-.011,8,8,0,0,1-1.275-.712s-.61,1.537.55,2.138,2.124.373,2.715,1.382a4.4,4.4,0,0,1,.569,3.418,4.327,4.327,0,0,0,1.372-3.386c.012-.171.527-.565.986-.807a2.727,2.727,0,0,1,.669-.245s-.228.737-.5,1.468c-.672,1.818-1.262,3.386-3.54,4.18a10.266,10.266,0,0,1-6.009,2.675c-5.047.43-5.311-2.066-5.135-3.615s2.545-3.271,2.545-3.271c-.627.071-1.505.2-2.5.26-2.838.179-6.2-.349-7.728-2.888-.126-.208-.22-.4-.22-.4a6.386,6.386,0,0,0-.086,5.618c-3.014.4-5.953.008-6.98-4.1a13.368,13.368,0,0,0-1.549,4.324c-.582,3.657,1.163,5.474,3.517,7.286,2.389,1.84,5.28,3.584,6.338,6.431a8.969,8.969,0,0,1,.5,3.339c2.8-2.165,4.283-5.231,3.477-8.544-.034-.14-.056-.224-.056-.224a7.183,7.183,0,0,1,.985,1.27c3.093,5.012,1.382,10.393-3.787,13.583a32.3,32.3,0,0,0,6.71-1.861c11.586-4.44,14.763-15.191,14.763-27.492,0-.8-.147-.221,0,.372.049.092.409.186,0-.2-.115-.11.295.081,0-.177-1.831-1.625-3.913-2.476-7.06-6.241a38.989,38.989,0,0,0-3.737-2.583c-.111-.07.969-.476.752-.818-1.658-2.607-1.5-1.763-3.342-5.164-.174-.321-2.2-4.79-2.5-5.325C494.553-1892.462,473.861-1895.21,468.9-1892.288Zm33.352,39.216c-1.6-.119-.744-1.257-.094-1.859,1.607-1.486,5.244-3.417,6.426-3.417-.12.535-.5.636-.056,1.4s1.116,1.352.941,2.4a12.6,12.6,0,0,1-1.8,3.263,2.671,2.671,0,0,0-2.271-1.865c-1.084-.129-2.11.152-3.149.075" transform="translate(-466.935 1894.837)" fill="#fff" fill-rule="evenodd"/><path d="M558.33-1004.754c1.125-7.827-1.289-9.766-4.764-13.555-3.735-4.072-6.39-10.137-1.4-16.2-3.054,7.136,4.007,11.868,7.917,16.657,3.134,3.838,4.539,9.066-1.757,13.095" transform="translate(-548.025 1063.12)" fill-rule="evenodd" fill="url(#a)"/></g></g></svg>