<svg xmlns="http://www.w3.org/2000/svg" width="23.485" height="24.933" viewBox="0 0 23.485 24.933"><path d="M25.139,11.507a12.413,12.413,0,0,1-.43,2.789,7.924,7.924,0,0,1-1.126,2.449,5.856,5.856,0,0,1-1.91,1.74,5.555,5.555,0,0,1-2.788.662,4.168,4.168,0,0,1-2.017-.475,3.387,3.387,0,0,1-1.363-1.345,4.376,4.376,0,0,1-3.654,1.767,3.881,3.881,0,0,1-1.822-.428,3.743,3.743,0,0,1-1.368-1.223,5.292,5.292,0,0,1-.793-1.913,7.948,7.948,0,0,1-.1-2.5,11.243,11.243,0,0,1,.79-3.057,8.255,8.255,0,0,1,1.46-2.342,6.153,6.153,0,0,1,2.007-1.493,5.782,5.782,0,0,1,2.441-.522,7.875,7.875,0,0,1,1.46.12,6.149,6.149,0,0,1,1.133.327,6.211,6.211,0,0,1,.939.477c.286.178.575.361.861.548l-.709,7.852a2.514,2.514,0,0,0,.021.919,1.268,1.268,0,0,0,.291.567,1.053,1.053,0,0,0,.473.3,1.807,1.807,0,0,0,1.66-.315,3.431,3.431,0,0,0,.89-1.091,6.853,6.853,0,0,0,.6-1.639,10.848,10.848,0,0,0,.262-2.041,12.573,12.573,0,0,0-.333-3.814,7.466,7.466,0,0,0-1.466-2.951,6.792,6.792,0,0,0-2.628-1.9A9.865,9.865,0,0,0,14.084,2.3,8.73,8.73,0,0,0,10.3,3.1,8.643,8.643,0,0,0,7.42,5.3,10.461,10.461,0,0,0,5.536,8.614a14.439,14.439,0,0,0-.793,4.129,13.237,13.237,0,0,0,.4,4.213,7.511,7.511,0,0,0,1.6,3.019,6.682,6.682,0,0,0,2.709,1.814,10.755,10.755,0,0,0,3.738.6,13.282,13.282,0,0,0,2.453-.254c.4-.078.788-.171,1.154-.274a8.908,8.908,0,0,0,.994-.343l.513,2.222a5.787,5.787,0,0,1-1.112.53,11.022,11.022,0,0,1-1.314.366,13.3,13.3,0,0,1-2.745.3,14.9,14.9,0,0,1-5-.776,9.246,9.246,0,0,1-3.648-2.309A9.6,9.6,0,0,1,2.3,18.035a15.687,15.687,0,0,1-.612-5.293A15.617,15.617,0,0,1,2.736,7.664,12.492,12.492,0,0,1,5.27,3.629,11.55,11.55,0,0,1,9.137.966,12.51,12.51,0,0,1,14.144,0,13.072,13.072,0,0,1,19,.837a9.447,9.447,0,0,1,3.5,2.353,9.558,9.558,0,0,1,2.078,3.635A13.409,13.409,0,0,1,25.139,11.507Zm-13.9,1.527a5.117,5.117,0,0,0,.285,2.628,1.467,1.467,0,0,0,1.408.888,1.609,1.609,0,0,0,.482-.086,1.735,1.735,0,0,0,.555-.321,2.88,2.88,0,0,0,.563-.654,4.934,4.934,0,0,0,.518-1.106l.553-6.1a3.427,3.427,0,0,0-.861-.109,3.071,3.071,0,0,0-1.432.316,2.793,2.793,0,0,0-1.015.929,5.346,5.346,0,0,0-.673,1.527,12.516,12.516,0,0,0-.382,2.088Z" transform="translate(-1.67)" fill="#4477b4"/></svg>