<svg xmlns="http://www.w3.org/2000/svg" xmlns:xlink="http://www.w3.org/1999/xlink" width="468.234" height="435.075" viewBox="0 0 468.234 435.075"><defs><linearGradient id="a" x1="0.108" y1="-0.358" x2="0.315" y2="1.286" gradientUnits="objectBoundingBox"><stop offset="0" stop-color="#fff"/><stop offset="1" stop-color="#fff" stop-opacity="0"/></linearGradient><linearGradient id="b" x1="1.537" y1="-1.669" x2="1.553" y2="1.766" xlink:href="#a"/><linearGradient id="c" x1="2.394" y1="-2.638" x2="2.411" y2="-0.614" xlink:href="#a"/><linearGradient id="d" x1="3.687" y1="-3.517" x2="3.704" y2="-1.598" xlink:href="#a"/><linearGradient id="e" x1="4.04" y1="-2.058" x2="4.057" y2="-0.139" xlink:href="#a"/><linearGradient id="f" x1="2.788" y1="-1.322" x2="2.804" y2="0.911" xlink:href="#a"/><linearGradient id="g" x1="0.924" y1="-4.045" x2="0.94" y2="-0.611" xlink:href="#a"/></defs><g transform="translate(-99.954 -92.194)"><g transform="translate(99.954 92.194)"><path d="M737.033,854.185c-1.677.083-3.346,1.419-4.636,4.031-33.419,110.881-87.434,229.96-157.835,285.151-4.379,9.031,1.657,10.532,6.527,10.513,107.677,38.145,202.364,17.328,311.378.125,6.025.007,11.286-2.808,7.224-10.492C883.034,1025.79,845.2,956.277,741.772,857.637c-1.361-2.359-3.059-3.532-4.736-3.449Zm-.206,60.906a22.073,22.073,0,0,1,3.848,3.753c105.136,75.21,115.656,197.141,118.088,202.926.757,5.306-.666,5.667-4.02,7.4-83.843,32.416-190.3,29.86-224.492,2.629-.748.1-6.887-2.971-7.524-6.072,68.682-51.557,81.264-127.33,109.052-207.128,0,0,.844-4.771,2.726-4.557a6.7,6.7,0,0,1,2.321,1.053Z" transform="translate(-517.777 -844.909)"/><path d="M771.5,856.326c-1.756.083-3.5,1.422-4.853,4.041C731.66,971.525,675.12,1090.9,601.427,1146.232c-4.584,9.053,1.735,10.558,6.832,10.539,112.712,38.24,211.826,17.371,325.938.125,6.307.007,11.814-2.815,7.561-10.519-17.434-118.018-57.036-187.7-165.3-286.592-1.425-2.365-3.2-3.541-4.957-3.458Zm-.216,61.058a22.687,22.687,0,0,1,4.028,3.763c110.052,75.4,121.064,197.636,123.61,203.434.792,5.319-.7,5.681-4.208,7.415-87.763,32.5-199.2,29.935-234.989,2.636-.783.1-7.209-2.979-7.876-6.088C723.738,1076.859,736.909,1000.9,766,920.9c0,0,.884-4.783,2.854-4.569a7.18,7.18,0,0,1,2.429,1.056Z" transform="translate(-544.215 -856.324)" fill="#5fb8fc"/><path d="M775.077,860.865C775.125,860.827,774.878,861.141,775.077,860.865Zm.417,2.812-.208.6c-3,11.547-7.656,22.758-11.373,34.181-10.151,28.6-21.4,56.981-34.223,84.591,2.3,3.158,4.848,6.4,7.707,9.665,9.56-26.852,17.234-54.478,27.995-80.838a8.421,8.421,0,0,1,6.436-3.375c8.374.711,12.751,9.109,19.809,12.54,47.973,35.377,82.944,86.477,102.421,142.766,9.745,1.475,18.57,2.337,26.495,2.77-10.563-32.844-25.286-64.319-45.137-92.569-28.107-41.229-63.621-76.326-99.921-110.332Z" transform="translate(-546.331 -856.398)" fill="url(#a)"/><path d="M6.571,0H209.665a6.571,6.571,0,0,1,0,13.142H6.571A6.571,6.571,0,0,1,6.571,0Z" transform="matrix(0.925, -0.379, 0.379, 0.925, 148.041, 224.991)"/><g transform="translate(153.743 38.977)"><path d="M82.605,230.979h22.783a4.631,4.631,0,0,1,4.641,4.641v.844a4.631,4.631,0,0,1-4.641,4.641H82.605a4.631,4.631,0,0,1-4.641-4.641v-.844A4.631,4.631,0,0,1,82.605,230.979ZM6.927,186.88,27.5,198.5a4.641,4.641,0,0,1-4.563,8.083L2.363,194.963a4.641,4.641,0,0,1,4.563-8.083ZM105.281,169.7l5.613-1.187c4.542-.96,7.994,2,7.738,6.634L115.7,228.492a11.508,11.508,0,0,1-8.659,10.1l-5.613,1.187c-4.542.96-7.994-2-7.738-6.634L96.622,179.8A11.508,11.508,0,0,1,105.281,169.7Zm14.83-56.578,7.293,2.119a6.736,6.736,0,0,1,4.6,8.366l-12.24,42.136a6.736,6.736,0,0,1-8.366,4.6l-7.293-2.119a6.736,6.736,0,0,1-4.6-8.366l12.24-42.136a6.736,6.736,0,0,1,8.366-4.6ZM42.193,154.463l6.613,3.734a6.735,6.735,0,0,1,2.559,9.2l-19.084,33.8a6.735,6.735,0,0,1-9.2,2.559l-6.613-3.734a6.735,6.735,0,0,1-2.559-9.2L33,157.022a6.736,6.736,0,0,1,9.2-2.559ZM85.976,111.5l5.379,5.361a6.735,6.735,0,0,1,.016,9.546L56.23,161.675a6.735,6.735,0,0,1-9.546.017L41.3,156.331a6.736,6.736,0,0,1-.016-9.547L76.43,111.521a6.736,6.736,0,0,1,9.547-.017Zm-25.9-29.917a6.736,6.736,0,0,1-4.86,8.217L18.44,99.245a6.751,6.751,0,0,1-3.356-13.077l36.779-9.44a6.736,6.736,0,0,1,8.217,4.86Zm17.166-30.4,2.2,1.245a6.735,6.735,0,0,1,2.559,9.2L70.808,81.47a6.735,6.735,0,0,1-9.2,2.559l-2.2-1.245a6.735,6.735,0,0,1-2.559-9.2l11.2-19.839A6.735,6.735,0,0,1,77.245,51.19ZM175.153,80.3a6.736,6.736,0,0,1,2.559,9.2l-13.275,23.513a6.75,6.75,0,1,1-11.756-6.638l13.275-23.513A6.735,6.735,0,0,1,175.153,80.3ZM143.808,50.009l33.8,19.084a6.75,6.75,0,1,1-6.638,11.756l-33.8-19.084a6.75,6.75,0,0,1,6.638-11.756ZM98.772,40.625l18.564-.007a17.682,17.682,0,0,1,17.725,17.714l.014,44.721a17.68,17.68,0,0,1-17.714,17.725l-18.564.007a17.682,17.682,0,0,1-17.725-17.714l-.014-44.721A17.68,17.68,0,0,1,98.772,40.625Zm28.2-8.845A21.521,21.521,0,1,1,118.6,2.832,21.309,21.309,0,0,1,126.968,31.78Z" transform="matrix(0.871, -0.492, 0.492, 0.871, 0, 89.011)"/><path d="M803.424,930.724c-13.58-.092-23.686,17.569-15.538,28.828,5.475,8.376,16.848,9.807,26.036,8.728-4.772,3.343-10.269,6.666-13.5,11.6-3.513,7.318-.045,15.622,4.687,21.454,7.659,13.281,14.23,27.618,23.953,39.346-6.323.606-7.579,8.154-8.269,13.248-3.618,13.866-8.959,27.365-10.644,41.679a32.139,32.139,0,0,0,4.124,4.145c-4.9.094-7.838,5.357-6.633,9.787.633,13.873-.16,27.766.447,41.64,4.8-1.633,11.93,1.427,14.914-4,1.739-13.672.729-27.824.479-41.679-2.486-3.254,1.855-6.555,2.088-9.942,3.512-12.226,6.939-24.483,10.41-36.716.889-4.5,2.553-9.708,1.9-14a46.924,46.924,0,0,0-4.916-3.208c8.658-.091,15.289-6.709,23-9.519,2.665-.58,1.908,3.957,2.583,5.624,3.716,13.312,4.814,27.67,11.248,40.159,3.906-2.076,10.318-.244,12.394-5.1.7-9.777-4.79-18.552-5.605-28.191-1.495-6.98-2.1-15.476-7.976-20.217-1.142-.656-4.081.658-2.458-1.354,3.737-9.384-2.6-18.886-7.79-26.266-7.042-10.878-10.756-24.76-21.413-32.744-6.033-4.024-14.607.267-19.476,2.1,1.42-2.317.685-5.281,2.854-7.332a15.148,15.148,0,0,0,1.833-14.518c-2.53-7.858-10.3-13.992-18.726-13.56Zm82.944,28.515c-13.033,1.6-26.461-.634-39.409,1.041-4.067,2.173-1.034,9.727,3.437,7.915,13.064-.415,26.145.375,39.2-.375-4.5,9.306-1.265,19.972-2.625,29.7-1.293,3.786,1.971,9.947,6.416,7.79,4.394-3.425.927-9.749,2.094-14.328.959-8.42.192-17.217-3.552-24.768,1.445-3.584-1.995-7.144-5.561-6.978ZM792.72,993.295c-5.459.256-6.247,7.059-4.957,11.144.3,6.656-2.225,15.031,2.833,20.413,4.672,1.889,9.8-3.621,7.852-8.124-.012-7.569.829-15.239-.979-22.662-1.6-.229-3.116-.885-4.749-.771Zm-5.166,32.931c-12.3,6.96-20.939,19.106-31.515,28.307-2.7,3.918,3.88,8.94,6.811,5.082,8.9-10.393,22.093-17.641,28.12-30.244a3.567,3.567,0,0,0-3.416-3.145Zm94.062,50.137c-2.791,4.441-9.629,7.9-7.852,14,4.666,12.849,12.329,24.312,17.685,36.845,2.838,5.792,5.733,11.556,8.56,17.353,10.066-1.238,14.141-15.157,7.5-22.408-8.876-15.322-13.82-32.943-25.248-46.683l-.39.541-.256.355Z" transform="translate(-699.398 -895.318)"/><path d="M803.424,930.724c-13.58-.092-23.686,17.569-15.538,28.828,5.475,8.376,16.848,9.807,26.036,8.728-4.772,3.343-10.269,6.666-13.5,11.6-3.513,7.318-.045,15.622,4.687,21.454,7.659,13.281,14.23,27.618,23.953,39.346-6.323.606-7.579,8.154-8.269,13.248-3.618,13.866-8.959,27.365-10.644,41.679a32.139,32.139,0,0,0,4.124,4.145c-4.9.094-7.838,5.357-6.633,9.787.633,13.873-.16,27.766.447,41.64,4.8-1.633,11.93,1.427,14.914-4,1.739-13.672.729-27.824.479-41.679-2.486-3.254,1.855-6.555,2.088-9.942,3.512-12.226,6.939-24.483,10.41-36.716.889-4.5,2.553-9.708,1.9-14a46.924,46.924,0,0,0-4.916-3.208c8.658-.091,15.289-6.709,23-9.519,2.665-.58,1.908,3.957,2.583,5.624,3.716,13.312,4.814,27.67,11.248,40.159,3.906-2.076,10.318-.244,12.394-5.1.7-9.777-4.79-18.552-5.605-28.191-1.495-6.98-2.1-15.476-7.976-20.217-1.142-.656-4.081.658-2.458-1.354,3.737-9.384-2.6-18.886-7.79-26.266-7.042-10.878-10.756-24.76-21.413-32.744-6.033-4.024-14.607.267-19.476,2.1,1.42-2.317.685-5.281,2.854-7.332a15.148,15.148,0,0,0,1.833-14.518c-2.53-7.858-10.3-13.992-18.726-13.56Zm82.944,28.515c-13.033,1.6-26.461-.634-39.409,1.041-4.067,2.173-1.034,9.727,3.437,7.915,13.064-.415,26.145.375,39.2-.375-4.5,9.306-1.265,19.972-2.625,29.7-1.293,3.786,1.971,9.947,6.416,7.79,4.394-3.425.927-9.749,2.094-14.328.959-8.42.192-17.217-3.552-24.768,1.445-3.584-1.995-7.144-5.561-6.978ZM792.72,993.295c-5.459.256-6.247,7.059-4.957,11.144.3,6.656-2.225,15.031,2.833,20.413,4.672,1.889,9.8-3.621,7.852-8.124-.012-7.569.829-15.239-.979-22.662-1.6-.229-3.116-.885-4.749-.771Zm-5.166,32.931c-12.3,6.96-20.939,19.106-31.515,28.307-2.7,3.918,3.88,8.94,6.811,5.082,8.9-10.393,22.093-17.641,28.12-30.244a3.567,3.567,0,0,0-3.416-3.145Zm94.062,50.137c-2.791,4.441-9.629,7.9-7.852,14,4.666,12.849,12.329,24.312,17.685,36.845,2.838,5.792,5.733,11.556,8.56,17.353,10.066-1.238,14.141-15.157,7.5-22.408-8.876-15.322-13.82-32.943-25.248-46.683l-.39.541-.256.355Z" transform="translate(-699.398 -895.318)"/></g><path d="M669.541,1081.079h33.506a3.442,3.442,0,0,1,3.45,3.45v28.316a3.443,3.443,0,0,1-3.45,3.45H669.541a3.443,3.443,0,0,1-3.45-3.45v-28.316a3.443,3.443,0,0,1,3.45-3.45Z" transform="translate(-545.294 -859.986)" stroke="#fff" stroke-width="0.42"/><path d="M3.45,0H36.956a3.442,3.442,0,0,1,3.45,3.45V31.766a3.443,3.443,0,0,1-3.45,3.45H3.45A3.442,3.442,0,0,1,0,31.766V3.45A3.442,3.442,0,0,1,3.45,0Z" transform="matrix(0.788, -0.616, 0.616, 0.788, 87.664, 286.469)" stroke="#fff" stroke-width="0.42"/><path d="M3.45,0H36.956a3.443,3.443,0,0,1,3.45,3.45V31.766a3.442,3.442,0,0,1-3.45,3.45H3.45A3.442,3.442,0,0,1,0,31.766V3.45A3.443,3.443,0,0,1,3.45,0Z" transform="matrix(0.881, -0.473, 0.473, 0.881, 70.465, 243.794)" stroke="#fff" stroke-width="0.42"/><path d="M3.45,0H36.956a3.443,3.443,0,0,1,3.45,3.45V31.766a3.443,3.443,0,0,1-3.45,3.45H3.45A3.443,3.443,0,0,1,0,31.766V3.45A3.443,3.443,0,0,1,3.45,0Z" transform="matrix(0.751, -0.66, 0.66, 0.751, 32.247, 275.845)" stroke="#fff" stroke-width="0.42"/><path d="M3.45,0H36.956a3.442,3.442,0,0,1,3.45,3.45V31.766a3.443,3.443,0,0,1-3.45,3.45H3.45A3.442,3.442,0,0,1,0,31.766V3.45A3.443,3.443,0,0,1,3.45,0Z" transform="translate(45.023 316.179) rotate(-41.506)" stroke="#fff" stroke-width="0.42"/><path d="M1.171,0H12.543a1.168,1.168,0,0,1,1.171,1.171v9.61a1.169,1.169,0,0,1-1.171,1.171H1.171A1.169,1.169,0,0,1,0,10.781V1.171A1.168,1.168,0,0,1,1.171,0Z" transform="matrix(0.531, -0.847, 0.847, 0.531, 7.705, 343.918)"/><path d="M1.171,0H12.543a1.168,1.168,0,0,1,1.171,1.171v9.61a1.168,1.168,0,0,1-1.171,1.171H1.171A1.168,1.168,0,0,1,0,10.781V1.171A1.168,1.168,0,0,1,1.171,0Z" transform="matrix(0.881, -0.473, 0.473, 0.881, 21.564, 289.543)"/><path d="M1.171,0H12.543a1.168,1.168,0,0,1,1.171,1.171v9.61a1.168,1.168,0,0,1-1.171,1.171H1.171A1.168,1.168,0,0,1,0,10.781V1.171A1.169,1.169,0,0,1,1.171,0Z" transform="matrix(0.881, -0.473, 0.473, 0.881, 0, 417.37)"/><path d="M1.171,0H12.543a1.168,1.168,0,0,1,1.171,1.171v9.61a1.168,1.168,0,0,1-1.171,1.171H1.171A1.168,1.168,0,0,1,0,10.781V1.171A1.168,1.168,0,0,1,1.171,0Z" transform="matrix(0.594, -0.804, 0.804, 0.594, 46.002, 364.587)"/><path d="M1.171,0H12.543a1.168,1.168,0,0,1,1.171,1.171v9.61a1.168,1.168,0,0,1-1.171,1.171H1.171A1.168,1.168,0,0,1,0,10.781V1.171A1.168,1.168,0,0,1,1.171,0Z" transform="matrix(0.496, -0.868, 0.868, 0.496, 9.55, 368.589)"/><path d="M1.171,0H12.543a1.168,1.168,0,0,1,1.171,1.171v9.61a1.168,1.168,0,0,1-1.171,1.171H1.171A1.168,1.168,0,0,1,0,10.781V1.171A1.168,1.168,0,0,1,1.171,0Z" transform="matrix(0.881, -0.473, 0.473, 0.881, 1.731, 385.051)"/><path d="M1.171,0H12.543a1.168,1.168,0,0,1,1.171,1.171v9.61a1.169,1.169,0,0,1-1.171,1.171H1.171A1.168,1.168,0,0,1,0,10.781V1.171A1.168,1.168,0,0,1,1.171,0Z" transform="matrix(0.742, -0.671, 0.671, 0.742, 88.549, 334.51)"/><path d="M1.171,0H12.543a1.168,1.168,0,0,1,1.171,1.171v9.61a1.168,1.168,0,0,1-1.171,1.171H1.171A1.168,1.168,0,0,1,0,10.781V1.171A1.168,1.168,0,0,1,1.171,0Z" transform="translate(23.945 319.071) rotate(-45.47)"/><path d="M1.171,0H12.543a1.168,1.168,0,0,1,1.171,1.171v9.61a1.168,1.168,0,0,1-1.171,1.171H1.171A1.168,1.168,0,0,1,0,10.781V1.171A1.168,1.168,0,0,1,1.171,0Z" transform="translate(18.681 400.82) rotate(-55.763)"/><path d="M1.171,0H12.543a1.168,1.168,0,0,1,1.171,1.171v9.61a1.168,1.168,0,0,1-1.171,1.171H1.171A1.168,1.168,0,0,1,0,10.781V1.171A1.168,1.168,0,0,1,1.171,0Z" transform="translate(34.938 349.28) rotate(-84.62)"/><path d="M1.171,0H12.543a1.168,1.168,0,0,1,1.171,1.171v9.61a1.168,1.168,0,0,1-1.171,1.171H1.171A1.168,1.168,0,0,1,0,10.781V1.171A1.168,1.168,0,0,1,1.171,0Z" transform="translate(67.383 348.827) rotate(-41.12)"/><path d="M1.171,0H12.543a1.168,1.168,0,0,1,1.171,1.171v9.61a1.168,1.168,0,0,1-1.171,1.171H1.171A1.168,1.168,0,0,1,0,10.781V1.171A1.168,1.168,0,0,1,1.171,0Z" transform="translate(27.935 378.568) rotate(-59.811)"/><path d="M700.683,1082.84c-10.682.756-21.635-.67-32.161.583-2.314,3.2,1.526,6.555,3.52,8.706,5.96,5.827,14.94,6.929,22.882,5.29,3.085-.505,7.165-.424,9.675-1.582-.366-4.14,1.328-8.911-.771-12.6a5.856,5.856,0,0,0-3.145-.4Z" transform="translate(-545.322 -860.014)" fill="url(#b)"/><path d="M662.592,1128.01c-8.237,6.843-17.967,12.07-25.788,19.226-.013,3.95,5.061,4.436,7.936,5.021,8.24,1.259,16.177-3.082,21.674-9.044,2.212-2.209,5.574-4.522,6.937-6.927-2.711-3.15-4.117-8.014-7.974-9.789a5.858,5.858,0,0,0-2.786,1.512Z" transform="translate(-544.817 -860.726)" fill="url(#c)"/><path d="M616.693,1156.532c-7.652,7.492-16.923,13.5-24.134,21.265.309,3.938,5.406,4.009,8.32,4.357,8.315.582,15.872-4.391,20.864-10.782,2.024-2.382,5.186-4.961,6.349-7.469-2.959-2.918-4.757-7.651-8.746-9.106a5.859,5.859,0,0,0-2.653,1.735Z" transform="translate(-544.096 -861.187)" fill="url(#d)"/><path d="M603.941,1115.878c-7.652,7.492-16.923,13.5-24.134,21.265.309,3.938,5.406,4.008,8.32,4.357,8.315.583,15.872-4.391,20.864-10.782,2.024-2.382,5.186-4.961,6.349-7.469-2.959-2.918-4.757-7.651-8.746-9.106a5.857,5.857,0,0,0-2.653,1.735Z" transform="translate(-543.889 -860.525)" fill="url(#e)"/><path d="M647.022,1089.6c-9.078,5.681-19.419,9.561-28.126,15.606-.541,3.913,4.423,5.073,7.194,6.036,8,2.349,16.443-.892,22.688-6.066,2.487-1.894,6.128-3.736,7.8-5.937-2.266-3.484-3.009-8.492-6.594-10.767a5.856,5.856,0,0,0-2.963,1.127Z" transform="translate(-544.525 -860.107)" fill="url(#f)"/><path d="M692.633,1118.142h33.506a3.443,3.443,0,0,1,3.45,3.45v28.316a3.443,3.443,0,0,1-3.45,3.45H692.633a3.443,3.443,0,0,1-3.45-3.45v-28.316A3.443,3.443,0,0,1,692.633,1118.142Z" transform="translate(-545.671 -860.59)" stroke="#fff" stroke-width="0.42"/><path d="M723.788,1119.836c-10.682.757-21.634-.67-32.16.583-2.314,3.2,1.525,6.555,3.52,8.706,5.96,5.827,14.94,6.929,22.881,5.29,3.085-.505,7.165-.424,9.675-1.582-.366-4.14,1.328-8.911-.771-12.6a5.858,5.858,0,0,0-3.145-.4Z" transform="translate(-545.699 -860.617)" fill="url(#g)"/><path d="M735.915,1221.276q2.039,5.921-.766,9.243-2.583,3.08-8.816,3.578a19.7,19.7,0,0,1-10.755-1.828,14.508,14.508,0,0,1-7.072-8.506l-5.618-16.311,9.743-.778,5.355,15.548a6.238,6.238,0,0,0,2.139,3.039,4.842,4.842,0,0,0,3.417.958,2.707,2.707,0,0,0,2.585-1.625,4.728,4.728,0,0,0-.156-3.347l-5.243-15.221,9.667-.772Z" transform="translate(-545.894 -862.01)"/><path d="M775.589,1229.695l-9.033.721-15.84-12.808,4.978,13.675-9.779.781-9.4-27.282,9.07-.724,15.891,12.841-5.028-13.709,9.741-.778Z" transform="translate(-546.442 -861.963)"/><path d="M786.38,1200.874a18.618,18.618,0,0,1,19.188,12.615q2.052,5.958-.367,10.014t-8.5,4.542l-14.371,1.147-9.384-27.245Zm9.3,13.293a9.391,9.391,0,0,0-3.145-4.564,7.41,7.41,0,0,0-5.279-1.52l-2.128.17,4.529,13.151,2.2-.176q3.061-.244,3.99-2.222.868-1.823-.171-4.839Z" transform="translate(-547.035 -861.937)"/><path d="M835.513,1224.884l-19.9,1.588-9.4-27.282,19.82-1.582,2.152,6.248-10.077.8,1.439,4.178,9.107-.727,2.14,6.211-9.107.727,1.527,4.432,10.153-.811Z" transform="translate(-547.578 -861.885)"/><path d="M869.654,1222.19l-10.489.838q-4.526-5.126-4.638-5.229-4-4.272-5.21-4.212l-2.378-.893,3.791,11.007-9.706.775-9.4-27.282,15.3-1.222a15.314,15.314,0,0,1,7.768,1.172,9.677,9.677,0,0,1,5.287,5.886q1.677,4.868-2.924,7.1,1.408.522,6.769,5.955,2.893,3.053,5.822,6.1ZM850.719,1204.4q-1.113-3.233-5.294-2.9l-2.277.182,2.252,6.539,2.24-.179a4.112,4.112,0,0,0,2.649-1A2.349,2.349,0,0,0,850.719,1204.4Z" transform="translate(-547.992 -861.857)"/><path d="M611.569,1294.608a21.247,21.247,0,0,1-9.821,3.311,22.186,22.186,0,0,1-14.475-3.411,20.906,20.906,0,0,1-8.888-12.025q-2.334-7.891,1.654-13.218,3.859-5.134,12.054-5.883a32.321,32.321,0,0,1,10.4,1.008l3,10.15a18.849,18.849,0,0,0-8.74-1.568q-3.825.35-5.55,2.421-1.881,2.174-.806,5.809a8.721,8.721,0,0,0,4.2,5.353,11.251,11.251,0,0,0,6.683,1.256,14.941,14.941,0,0,0,7.377-3.042Z" transform="translate(-543.851 -862.955)"/><path d="M650.354,1275.559q2.387,8.068-1.261,13.2t-11.978,5.9a22.681,22.681,0,0,1-14.632-3.305,20.984,20.984,0,0,1-8.926-12.159q-2.373-8.023,1.459-13.245,3.7-5.029,12.034-5.791a22.242,22.242,0,0,1,14.429,3.416,20.848,20.848,0,0,1,8.876,11.982Zm-11.98,1.232a9.53,9.53,0,0,0-3.016-4.823,7.275,7.275,0,0,0-5.428-1.6q-3.187.291-4.255,2.529a7.067,7.067,0,0,0-.054,5.2,9.52,9.52,0,0,0,3.018,4.823,6.965,6.965,0,0,0,5.337,1.606q3.279-.3,4.373-2.448,1-2,.026-5.284Z" transform="translate(-544.424 -862.902)"/><path d="M698.3,1288.477l-11.017,1.007-18.509-15.472,5.262,16.683-11.928,1.091-9.848-33.29,11.062-1.011L681.889,1273l-5.321-16.724,11.882-1.086Z" transform="translate(-545.069 -862.823)"/><path d="M727.908,1275.037q1.547,5.23-1.658,8.618-2.876,3.086-8.429,3.594a25.525,25.525,0,0,1-13.379-2.236l-1.309-8.85q6.226,3.346,10.6,2.946a4.416,4.416,0,0,0,2.256-.752,1.661,1.661,0,0,0,.71-2.022q-.38-1.285-4.428-2.327a39.731,39.731,0,0,1-7.759-2.522,10.735,10.735,0,0,1-5.7-6.627q-1.548-5.231,1.75-8.628,2.977-3.049,8.532-3.557a23.613,23.613,0,0,1,11.376,2.1l1.041,8.418q-5.92-2.782-9.106-2.491-3.051.279-2.448,2.318.459,1.551,4.5,2.548a38.036,38.036,0,0,1,7.628,2.4,11.331,11.331,0,0,1,5.833,7.071Z" transform="translate(-545.819 -862.781)"/><path d="M757.612,1257.983l-8.832.808,7.212,24.379-11.791,1.078-7.212-24.379-8.878.812-2.636-8.911,29.5-2.7Z" transform="translate(-546.262 -862.723)"/><path d="M805.714,1278.675l-12.793,1.17q-5.2-6.217-5.335-6.341-4.618-5.178-6.089-5.088l-2.838-1.062,3.973,13.431-11.837,1.083-9.847-33.291,18.666-1.707a18.007,18.007,0,0,1,9.371,1.328,10.894,10.894,0,0,1,6.086,7.138q1.757,5.94-3.962,8.738,1.68.62,7.883,7.2,3.339,3.7,6.723,7.4Zm-21.984-21.527q-1.167-3.944-6.266-3.479l-2.777.254,2.36,7.978,2.732-.25a5.264,5.264,0,0,0,3.276-1.255,2.98,2.98,0,0,0,.676-3.249Z" transform="translate(-546.84 -862.686)"/><path d="M839.344,1261.466q2.137,7.225-1.463,11.333-3.315,3.808-10.918,4.5T814,1275.21a16.354,16.354,0,0,1-8.1-10.323l-5.888-19.9,11.883-1.087,5.612,18.973a7.061,7.061,0,0,0,2.425,3.693,5.6,5.6,0,0,0,4.1,1.127,3.531,3.531,0,0,0,3.235-2.026,5.808,5.808,0,0,0,0-4.1L821.766,1243l11.792-1.078Z" transform="translate(-547.476 -862.607)"/><path d="M878.6,1270.147a21.247,21.247,0,0,1-9.821,3.311,22.188,22.188,0,0,1-14.475-3.411,20.9,20.9,0,0,1-8.888-12.025q-2.334-7.891,1.653-13.218,3.859-5.134,12.054-5.883a32.32,32.32,0,0,1,10.4,1.008l3,10.15a18.852,18.852,0,0,0-8.74-1.568q-3.825.35-5.55,2.421-1.881,2.174-.806,5.809a8.72,8.72,0,0,0,4.2,5.352,11.252,11.252,0,0,0,6.683,1.256,14.939,14.939,0,0,0,7.377-3.042Z" transform="translate(-548.202 -862.557)"/><path d="M906.883,1244.364l-8.832.807,7.212,24.379-11.792,1.078-7.212-24.379-8.878.811-2.636-8.91,29.5-2.7Z" transform="translate(-548.694 -862.502)"/><path d="M932.059,1267.133l-11.791,1.078-9.848-33.29,11.791-1.078Z" transform="translate(-549.275 -862.475)"/><path d="M970.551,1246.287q2.386,8.068-1.261,13.2t-11.978,5.9a22.678,22.678,0,0,1-14.632-3.305,20.985,20.985,0,0,1-8.926-12.159q-2.374-8.023,1.459-13.245,3.7-5.029,12.034-5.791a22.244,22.244,0,0,1,14.429,3.416,20.848,20.848,0,0,1,8.876,11.982Zm-11.98,1.231a9.53,9.53,0,0,0-3.016-4.823,7.275,7.275,0,0,0-5.428-1.6q-3.187.292-4.255,2.529a7.066,7.066,0,0,0-.054,5.2,9.52,9.52,0,0,0,3.018,4.823,6.966,6.966,0,0,0,5.337,1.606q3.279-.3,4.373-2.448,1-2,.026-5.285Z" transform="translate(-549.641 -862.425)"/><path d="M1018.521,1259.137l-11.018,1.008-18.509-15.472,5.262,16.683-11.928,1.09-9.848-33.29,11.062-1.011,18.57,15.512-5.321-16.723,11.882-1.087Z" transform="translate(-550.286 -862.345)"/></g></g></svg>