<svg xmlns="http://www.w3.org/2000/svg" width="27.113" height="30.671" viewBox="0 0 27.113 30.671"><path d="M24.453,0a1.342,1.342,0,0,0-1.231.843S13.326,17.743,13,18.3c.02.031,6.53,11.531,6.53,11.531a1.43,1.43,0,0,0,1.284.843H25.4a.694.694,0,0,0,.615-.281A.677.677,0,0,0,26,29.7L19.523,18.311a.027.027,0,0,1,0-.028L29.7.966a.677.677,0,0,0,.008-.684A.688.688,0,0,0,29.1,0ZM5.151,6.058a.716.716,0,0,0-.628.276.665.665,0,0,0,.027.679l3.106,5.176c.005.013.005.02,0,.027l-4.879,8.3a.644.644,0,0,0,0,.676.669.669,0,0,0,.6.3H7.969a1.4,1.4,0,0,0,1.254-.852l4.957-8.446-3.157-5.31a1.412,1.412,0,0,0-1.277-.842h-4.6v.02Z" transform="translate(-2.682)" fill="#fff"/></svg>