<svg xmlns="http://www.w3.org/2000/svg" width="36.455" height="41.24" viewBox="0 0 36.455 41.24"><path d="M31.955,0A1.8,1.8,0,0,0,30.3,1.134S16.994,23.857,16.553,24.6c.027.041,8.78,15.5,8.78,15.5a1.923,1.923,0,0,0,1.726,1.134h6.165a.933.933,0,0,0,.826-.378.91.91,0,0,0-.016-.921L25.326,24.62a.036.036,0,0,1,0-.038L39.007,1.3A.91.91,0,0,0,39.018.38.925.925,0,0,0,38.2,0ZM6,8.145a.962.962,0,0,0-.844.371.9.9,0,0,0,.036.912L9.37,16.388c.007.017.007.027,0,.036L2.811,27.581a.866.866,0,0,0,0,.909.9.9,0,0,0,.8.4H9.791a1.889,1.889,0,0,0,1.687-1.146l6.665-11.356L13.9,9.25a1.9,1.9,0,0,0-1.717-1.132H6v.027Z" transform="translate(-2.682)" fill="#1d2438"/></svg>